<?xml version="1.0" encoding="utf-8" standalone="no"?>
<!DOCTYPE svg PUBLIC "-//W3C//DTD SVG 1.1//EN"
  "http://www.w3.org/Graphics/SVG/1.1/DTD/svg11.dtd">
<!-- Created with matplotlib (https://matplotlib.org/) -->
<svg height="280.512pt" version="1.1" viewBox="0 0 371.52 280.512" width="371.52pt" xmlns="http://www.w3.org/2000/svg" xmlns:xlink="http://www.w3.org/1999/xlink">
 <defs>
  <style type="text/css">
*{stroke-linecap:butt;stroke-linejoin:round;white-space:pre;}
  </style>
 </defs>
 <g id="figure_1">
  <g id="axes_1">
   <g id="patch_2">
    <path clip-path="url(#p6dd18b5585)" d="M 185.76 59.092389 
L 185.76 59.092389 
L 104.596389 86.146892 
L 118.123641 86.146892 
z
" style="fill:none;stroke:#000000;stroke-linejoin:miter;stroke-width:0.5;"/>
   </g>
   <g id="patch_3">
    <path clip-path="url(#p6dd18b5585)" d="M 185.76 59.092389 
L 185.76 59.092389 
L 118.123641 86.146892 
L 131.650892 86.146892 
z
" style="fill:none;stroke:#000000;stroke-linejoin:miter;stroke-width:0.5;"/>
   </g>
   <g id="patch_4">
    <path clip-path="url(#p6dd18b5585)" d="M 185.76 59.092389 
L 185.76 59.092389 
L 131.650892 86.146892 
L 145.178195 86.146892 
z
" style="fill:none;stroke:#000000;stroke-linejoin:miter;stroke-width:0.5;"/>
   </g>
   <g id="patch_5">
    <path clip-path="url(#p6dd18b5585)" d="M 185.76 59.092389 
L 185.76 59.092389 
L 145.178195 86.146892 
L 158.705446 86.146892 
z
" style="fill:none;stroke:#000000;stroke-linejoin:miter;stroke-width:0.5;"/>
   </g>
   <g id="patch_6">
    <path clip-path="url(#p6dd18b5585)" d="M 185.76 59.092389 
L 185.76 59.092389 
L 158.705446 86.146892 
L 172.232749 86.146892 
z
" style="fill:none;stroke:#000000;stroke-linejoin:miter;stroke-width:0.5;"/>
   </g>
   <g id="patch_7">
    <path clip-path="url(#p6dd18b5585)" d="M 185.76 59.092389 
L 185.76 59.092389 
L 172.232749 86.146892 
L 185.76 86.146892 
z
" style="fill:none;stroke:#000000;stroke-linejoin:miter;stroke-width:0.5;"/>
   </g>
   <g id="patch_8">
    <path clip-path="url(#p6dd18b5585)" d="M 185.76 59.092389 
L 185.76 59.092389 
L 185.76 86.146892 
L 199.287251 86.146892 
z
" style="fill:none;stroke:#000000;stroke-linejoin:miter;stroke-width:0.5;"/>
   </g>
   <g id="patch_9">
    <path clip-path="url(#p6dd18b5585)" d="M 185.76 59.092389 
L 185.76 59.092389 
L 199.287251 86.146892 
L 212.814554 86.146892 
z
" style="fill:none;stroke:#000000;stroke-linejoin:miter;stroke-width:0.5;"/>
   </g>
   <g id="patch_10">
    <path clip-path="url(#p6dd18b5585)" d="M 185.76 59.092389 
L 185.76 59.092389 
L 212.814554 86.146892 
L 226.341805 86.146892 
z
" style="fill:none;stroke:#000000;stroke-linejoin:miter;stroke-width:0.5;"/>
   </g>
   <g id="patch_11">
    <path clip-path="url(#p6dd18b5585)" d="M 185.76 59.092389 
L 185.76 59.092389 
L 226.341805 86.146892 
L 239.869108 86.146892 
z
" style="fill:none;stroke:#000000;stroke-linejoin:miter;stroke-width:0.5;"/>
   </g>
   <g id="patch_12">
    <path clip-path="url(#p6dd18b5585)" d="M 185.76 59.092389 
L 185.76 59.092389 
L 239.869108 86.146892 
L 253.396359 86.146892 
z
" style="fill:none;stroke:#000000;stroke-linejoin:miter;stroke-width:0.5;"/>
   </g>
   <g id="patch_13">
    <path clip-path="url(#p6dd18b5585)" d="M 185.76 59.092389 
L 185.76 59.092389 
L 253.396359 86.146892 
L 266.923611 86.146892 
z
" style="fill:none;stroke:#000000;stroke-linejoin:miter;stroke-width:0.5;"/>
   </g>
   <g id="patch_14">
    <path clip-path="url(#p6dd18b5585)" d="M 118.123641 86.146892 
L 104.596389 86.146892 
L 45.180476 113.201446 
z
" style="fill:none;stroke:#000000;stroke-linejoin:miter;stroke-width:0.5;"/>
   </g>
   <g id="patch_15">
    <path clip-path="url(#p6dd18b5585)" d="M 118.123641 86.146892 
L 45.180476 113.201446 
L 68.610405 113.201446 
z
" style="fill:none;stroke:#000000;stroke-linejoin:miter;stroke-width:0.5;"/>
   </g>
   <g id="patch_16">
    <path clip-path="url(#p6dd18b5585)" d="M 131.650892 86.146892 
L 118.123641 86.146892 
L 92.040335 113.201446 
z
" style="fill:none;stroke:#000000;stroke-linejoin:miter;stroke-width:0.5;"/>
   </g>
   <g id="patch_17">
    <path clip-path="url(#p6dd18b5585)" d="M 118.123641 86.146892 
L 68.610405 113.201446 
L 92.040335 113.201446 
z
" style="fill:none;stroke:#000000;stroke-linejoin:miter;stroke-width:0.5;"/>
   </g>
   <g id="patch_18">
    <path clip-path="url(#p6dd18b5585)" d="M 145.178195 86.146892 
L 131.650892 86.146892 
L 92.040335 113.201446 
z
" style="fill:none;stroke:#000000;stroke-linejoin:miter;stroke-width:0.5;"/>
   </g>
   <g id="patch_19">
    <path clip-path="url(#p6dd18b5585)" d="M 145.178195 86.146892 
L 92.040335 113.201446 
L 115.470212 113.201446 
z
" style="fill:none;stroke:#000000;stroke-linejoin:miter;stroke-width:0.5;"/>
   </g>
   <g id="patch_20">
    <path clip-path="url(#p6dd18b5585)" d="M 158.705446 86.146892 
L 145.178195 86.146892 
L 138.900141 113.201446 
z
" style="fill:none;stroke:#000000;stroke-linejoin:miter;stroke-width:0.5;"/>
   </g>
   <g id="patch_21">
    <path clip-path="url(#p6dd18b5585)" d="M 145.178195 86.146892 
L 115.470212 113.201446 
L 138.900141 113.201446 
z
" style="fill:none;stroke:#000000;stroke-linejoin:miter;stroke-width:0.5;"/>
   </g>
   <g id="patch_22">
    <path clip-path="url(#p6dd18b5585)" d="M 172.232749 86.146892 
L 158.705446 86.146892 
L 138.900141 113.201446 
z
" style="fill:none;stroke:#000000;stroke-linejoin:miter;stroke-width:0.5;"/>
   </g>
   <g id="patch_23">
    <path clip-path="url(#p6dd18b5585)" d="M 172.232749 86.146892 
L 138.900141 113.201446 
L 162.330071 113.201446 
z
" style="fill:none;stroke:#000000;stroke-linejoin:miter;stroke-width:0.5;"/>
   </g>
   <g id="patch_24">
    <path clip-path="url(#p6dd18b5585)" d="M 185.76 86.146892 
L 172.232749 86.146892 
L 185.76 113.201446 
z
" style="fill:none;stroke:#000000;stroke-linejoin:miter;stroke-width:0.5;"/>
   </g>
   <g id="patch_25">
    <path clip-path="url(#p6dd18b5585)" d="M 172.232749 86.146892 
L 162.330071 113.201446 
L 185.76 113.201446 
z
" style="fill:none;stroke:#000000;stroke-linejoin:miter;stroke-width:0.5;"/>
   </g>
   <g id="patch_26">
    <path clip-path="url(#p6dd18b5585)" d="M 199.287251 86.146892 
L 185.76 86.146892 
L 185.76 113.201446 
z
" style="fill:none;stroke:#000000;stroke-linejoin:miter;stroke-width:0.5;"/>
   </g>
   <g id="patch_27">
    <path clip-path="url(#p6dd18b5585)" d="M 199.287251 86.146892 
L 185.76 113.201446 
L 209.189929 113.201446 
z
" style="fill:none;stroke:#000000;stroke-linejoin:miter;stroke-width:0.5;"/>
   </g>
   <g id="patch_28">
    <path clip-path="url(#p6dd18b5585)" d="M 212.814554 86.146892 
L 199.287251 86.146892 
L 232.619859 113.201446 
z
" style="fill:none;stroke:#000000;stroke-linejoin:miter;stroke-width:0.5;"/>
   </g>
   <g id="patch_29">
    <path clip-path="url(#p6dd18b5585)" d="M 199.287251 86.146892 
L 209.189929 113.201446 
L 232.619859 113.201446 
z
" style="fill:none;stroke:#000000;stroke-linejoin:miter;stroke-width:0.5;"/>
   </g>
   <g id="patch_30">
    <path clip-path="url(#p6dd18b5585)" d="M 226.341805 86.146892 
L 212.814554 86.146892 
L 232.619859 113.201446 
z
" style="fill:none;stroke:#000000;stroke-linejoin:miter;stroke-width:0.5;"/>
   </g>
   <g id="patch_31">
    <path clip-path="url(#p6dd18b5585)" d="M 226.341805 86.146892 
L 232.619859 113.201446 
L 256.049788 113.201446 
z
" style="fill:none;stroke:#000000;stroke-linejoin:miter;stroke-width:0.5;"/>
   </g>
   <g id="patch_32">
    <path clip-path="url(#p6dd18b5585)" d="M 239.869108 86.146892 
L 226.341805 86.146892 
L 279.479665 113.201446 
z
" style="fill:none;stroke:#000000;stroke-linejoin:miter;stroke-width:0.5;"/>
   </g>
   <g id="patch_33">
    <path clip-path="url(#p6dd18b5585)" d="M 226.341805 86.146892 
L 256.049788 113.201446 
L 279.479665 113.201446 
z
" style="fill:none;stroke:#000000;stroke-linejoin:miter;stroke-width:0.5;"/>
   </g>
   <g id="patch_34">
    <path clip-path="url(#p6dd18b5585)" d="M 253.396359 86.146892 
L 239.869108 86.146892 
L 279.479665 113.201446 
z
" style="fill:none;stroke:#000000;stroke-linejoin:miter;stroke-width:0.5;"/>
   </g>
   <g id="patch_35">
    <path clip-path="url(#p6dd18b5585)" d="M 253.396359 86.146892 
L 279.479665 113.201446 
L 302.909595 113.201446 
z
" style="fill:none;stroke:#000000;stroke-linejoin:miter;stroke-width:0.5;"/>
   </g>
   <g id="patch_36">
    <path clip-path="url(#p6dd18b5585)" d="M 266.923611 86.146892 
L 253.396359 86.146892 
L 326.339524 113.201446 
z
" style="fill:none;stroke:#000000;stroke-linejoin:miter;stroke-width:0.5;"/>
   </g>
   <g id="patch_37">
    <path clip-path="url(#p6dd18b5585)" d="M 253.396359 86.146892 
L 302.909595 113.201446 
L 326.339524 113.201446 
z
" style="fill:none;stroke:#000000;stroke-linejoin:miter;stroke-width:0.5;"/>
   </g>
   <g id="patch_38">
    <path clip-path="url(#p6dd18b5585)" d="M 68.610405 113.201446 
L 45.180476 113.201446 
L 50.487281 140.256 
z
" style="fill:none;stroke:#000000;stroke-linejoin:miter;stroke-width:0.5;"/>
   </g>
   <g id="patch_39">
    <path clip-path="url(#p6dd18b5585)" d="M 45.180476 113.201446 
L 23.432727 140.256 
L 50.487281 140.256 
z
" style="fill:none;stroke:#000000;stroke-linejoin:miter;stroke-width:0.5;"/>
   </g>
   <g id="patch_40">
    <path clip-path="url(#p6dd18b5585)" d="M 92.040335 113.201446 
L 68.610405 113.201446 
L 50.487281 140.256 
z
" style="fill:none;stroke:#000000;stroke-linejoin:miter;stroke-width:0.5;"/>
   </g>
   <g id="patch_41">
    <path clip-path="url(#p6dd18b5585)" d="M 92.040335 113.201446 
L 50.487281 140.256 
L 77.541835 140.256 
z
" style="fill:none;stroke:#000000;stroke-linejoin:miter;stroke-width:0.5;"/>
   </g>
   <g id="patch_42">
    <path clip-path="url(#p6dd18b5585)" d="M 115.470212 113.201446 
L 92.040335 113.201446 
L 104.596389 140.256 
z
" style="fill:none;stroke:#000000;stroke-linejoin:miter;stroke-width:0.5;"/>
   </g>
   <g id="patch_43">
    <path clip-path="url(#p6dd18b5585)" d="M 92.040335 113.201446 
L 77.541835 140.256 
L 104.596389 140.256 
z
" style="fill:none;stroke:#000000;stroke-linejoin:miter;stroke-width:0.5;"/>
   </g>
   <g id="patch_44">
    <path clip-path="url(#p6dd18b5585)" d="M 138.900141 113.201446 
L 115.470212 113.201446 
L 104.596389 140.256 
z
" style="fill:none;stroke:#000000;stroke-linejoin:miter;stroke-width:0.5;"/>
   </g>
   <g id="patch_45">
    <path clip-path="url(#p6dd18b5585)" d="M 138.900141 113.201446 
L 104.596389 140.256 
L 131.650892 140.256 
z
" style="fill:none;stroke:#000000;stroke-linejoin:miter;stroke-width:0.5;"/>
   </g>
   <g id="patch_46">
    <path clip-path="url(#p6dd18b5585)" d="M 162.330071 113.201446 
L 138.900141 113.201446 
L 158.705446 140.256 
z
" style="fill:none;stroke:#000000;stroke-linejoin:miter;stroke-width:0.5;"/>
   </g>
   <g id="patch_47">
    <path clip-path="url(#p6dd18b5585)" d="M 138.900141 113.201446 
L 131.650892 140.256 
L 158.705446 140.256 
z
" style="fill:none;stroke:#000000;stroke-linejoin:miter;stroke-width:0.5;"/>
   </g>
   <g id="patch_48">
    <path clip-path="url(#p6dd18b5585)" d="M 185.76 113.201446 
L 162.330071 113.201446 
L 158.705446 140.256 
z
" style="fill:none;stroke:#000000;stroke-linejoin:miter;stroke-width:0.5;"/>
   </g>
   <g id="patch_49">
    <path clip-path="url(#p6dd18b5585)" d="M 185.76 113.201446 
L 158.705446 140.256 
L 185.76 140.256 
z
" style="fill:none;stroke:#000000;stroke-linejoin:miter;stroke-width:0.5;"/>
   </g>
   <g id="patch_50">
    <path clip-path="url(#p6dd18b5585)" d="M 209.189929 113.201446 
L 185.76 113.201446 
L 212.814554 140.256 
z
" style="fill:none;stroke:#000000;stroke-linejoin:miter;stroke-width:0.5;"/>
   </g>
   <g id="patch_51">
    <path clip-path="url(#p6dd18b5585)" d="M 185.76 113.201446 
L 185.76 140.256 
L 212.814554 140.256 
z
" style="fill:none;stroke:#000000;stroke-linejoin:miter;stroke-width:0.5;"/>
   </g>
   <g id="patch_52">
    <path clip-path="url(#p6dd18b5585)" d="M 232.619859 113.201446 
L 209.189929 113.201446 
L 212.814554 140.256 
z
" style="fill:none;stroke:#000000;stroke-linejoin:miter;stroke-width:0.5;"/>
   </g>
   <g id="patch_53">
    <path clip-path="url(#p6dd18b5585)" d="M 232.619859 113.201446 
L 212.814554 140.256 
L 239.869108 140.256 
z
" style="fill:none;stroke:#000000;stroke-linejoin:miter;stroke-width:0.5;"/>
   </g>
   <g id="patch_54">
    <path clip-path="url(#p6dd18b5585)" d="M 256.049788 113.201446 
L 232.619859 113.201446 
L 266.923611 140.256 
z
" style="fill:none;stroke:#000000;stroke-linejoin:miter;stroke-width:0.5;"/>
   </g>
   <g id="patch_55">
    <path clip-path="url(#p6dd18b5585)" d="M 232.619859 113.201446 
L 239.869108 140.256 
L 266.923611 140.256 
z
" style="fill:none;stroke:#000000;stroke-linejoin:miter;stroke-width:0.5;"/>
   </g>
   <g id="patch_56">
    <path clip-path="url(#p6dd18b5585)" d="M 279.479665 113.201446 
L 256.049788 113.201446 
L 266.923611 140.256 
z
" style="fill:none;stroke:#000000;stroke-linejoin:miter;stroke-width:0.5;"/>
   </g>
   <g id="patch_57">
    <path clip-path="url(#p6dd18b5585)" d="M 279.479665 113.201446 
L 266.923611 140.256 
L 293.978165 140.256 
z
" style="fill:none;stroke:#000000;stroke-linejoin:miter;stroke-width:0.5;"/>
   </g>
   <g id="patch_58">
    <path clip-path="url(#p6dd18b5585)" d="M 302.909595 113.201446 
L 279.479665 113.201446 
L 321.032719 140.256 
z
" style="fill:none;stroke:#000000;stroke-linejoin:miter;stroke-width:0.5;"/>
   </g>
   <g id="patch_59">
    <path clip-path="url(#p6dd18b5585)" d="M 279.479665 113.201446 
L 293.978165 140.256 
L 321.032719 140.256 
z
" style="fill:none;stroke:#000000;stroke-linejoin:miter;stroke-width:0.5;"/>
   </g>
   <g id="patch_60">
    <path clip-path="url(#p6dd18b5585)" d="M 326.339524 113.201446 
L 302.909595 113.201446 
L 321.032719 140.256 
z
" style="fill:none;stroke:#000000;stroke-linejoin:miter;stroke-width:0.5;"/>
   </g>
   <g id="patch_61">
    <path clip-path="url(#p6dd18b5585)" d="M 326.339524 113.201446 
L 321.032719 140.256 
L 348.087273 140.256 
z
" style="fill:none;stroke:#000000;stroke-linejoin:miter;stroke-width:0.5;"/>
   </g>
   <g id="patch_62">
    <path clip-path="url(#p6dd18b5585)" d="M 50.487281 140.256 
L 23.432727 140.256 
L 45.180476 167.310554 
z
" style="fill:none;stroke:#000000;stroke-linejoin:miter;stroke-width:0.5;"/>
   </g>
   <g id="patch_63">
    <path clip-path="url(#p6dd18b5585)" d="M 50.487281 140.256 
L 45.180476 167.310554 
L 68.610405 167.310554 
z
" style="fill:none;stroke:#000000;stroke-linejoin:miter;stroke-width:0.5;"/>
   </g>
   <g id="patch_64">
    <path clip-path="url(#p6dd18b5585)" d="M 77.541835 140.256 
L 50.487281 140.256 
L 92.040335 167.310554 
z
" style="fill:none;stroke:#000000;stroke-linejoin:miter;stroke-width:0.5;"/>
   </g>
   <g id="patch_65">
    <path clip-path="url(#p6dd18b5585)" d="M 50.487281 140.256 
L 68.610405 167.310554 
L 92.040335 167.310554 
z
" style="fill:none;stroke:#000000;stroke-linejoin:miter;stroke-width:0.5;"/>
   </g>
   <g id="patch_66">
    <path clip-path="url(#p6dd18b5585)" d="M 104.596389 140.256 
L 77.541835 140.256 
L 92.040335 167.310554 
z
" style="fill:none;stroke:#000000;stroke-linejoin:miter;stroke-width:0.5;"/>
   </g>
   <g id="patch_67">
    <path clip-path="url(#p6dd18b5585)" d="M 104.596389 140.256 
L 92.040335 167.310554 
L 115.470212 167.310554 
z
" style="fill:none;stroke:#000000;stroke-linejoin:miter;stroke-width:0.5;"/>
   </g>
   <g id="patch_68">
    <path clip-path="url(#p6dd18b5585)" d="M 131.650892 140.256 
L 104.596389 140.256 
L 138.900141 167.310554 
z
" style="fill:none;stroke:#000000;stroke-linejoin:miter;stroke-width:0.5;"/>
   </g>
   <g id="patch_69">
    <path clip-path="url(#p6dd18b5585)" d="M 104.596389 140.256 
L 115.470212 167.310554 
L 138.900141 167.310554 
z
" style="fill:none;stroke:#000000;stroke-linejoin:miter;stroke-width:0.5;"/>
   </g>
   <g id="patch_70">
    <path clip-path="url(#p6dd18b5585)" d="M 158.705446 140.256 
L 131.650892 140.256 
L 138.900141 167.310554 
z
" style="fill:none;stroke:#000000;stroke-linejoin:miter;stroke-width:0.5;"/>
   </g>
   <g id="patch_71">
    <path clip-path="url(#p6dd18b5585)" d="M 158.705446 140.256 
L 138.900141 167.310554 
L 162.330071 167.310554 
z
" style="fill:none;stroke:#000000;stroke-linejoin:miter;stroke-width:0.5;"/>
   </g>
   <g id="patch_72">
    <path clip-path="url(#p6dd18b5585)" d="M 185.76 140.256 
L 158.705446 140.256 
L 185.76 167.310554 
z
" style="fill:none;stroke:#000000;stroke-linejoin:miter;stroke-width:0.5;"/>
   </g>
   <g id="patch_73">
    <path clip-path="url(#p6dd18b5585)" d="M 158.705446 140.256 
L 162.330071 167.310554 
L 185.76 167.310554 
z
" style="fill:none;stroke:#000000;stroke-linejoin:miter;stroke-width:0.5;"/>
   </g>
   <g id="patch_74">
    <path clip-path="url(#p6dd18b5585)" d="M 212.814554 140.256 
L 185.76 140.256 
L 185.76 167.310554 
z
" style="fill:none;stroke:#000000;stroke-linejoin:miter;stroke-width:0.5;"/>
   </g>
   <g id="patch_75">
    <path clip-path="url(#p6dd18b5585)" d="M 212.814554 140.256 
L 185.76 167.310554 
L 209.189929 167.310554 
z
" style="fill:none;stroke:#000000;stroke-linejoin:miter;stroke-width:0.5;"/>
   </g>
   <g id="patch_76">
    <path clip-path="url(#p6dd18b5585)" d="M 239.869108 140.256 
L 212.814554 140.256 
L 232.619859 167.310554 
z
" style="fill:none;stroke:#000000;stroke-linejoin:miter;stroke-width:0.5;"/>
   </g>
   <g id="patch_77">
    <path clip-path="url(#p6dd18b5585)" d="M 212.814554 140.256 
L 209.189929 167.310554 
L 232.619859 167.310554 
z
" style="fill:none;stroke:#000000;stroke-linejoin:miter;stroke-width:0.5;"/>
   </g>
   <g id="patch_78">
    <path clip-path="url(#p6dd18b5585)" d="M 266.923611 140.256 
L 239.869108 140.256 
L 232.619859 167.310554 
z
" style="fill:none;stroke:#000000;stroke-linejoin:miter;stroke-width:0.5;"/>
   </g>
   <g id="patch_79">
    <path clip-path="url(#p6dd18b5585)" d="M 266.923611 140.256 
L 232.619859 167.310554 
L 256.049788 167.310554 
z
" style="fill:none;stroke:#000000;stroke-linejoin:miter;stroke-width:0.5;"/>
   </g>
   <g id="patch_80">
    <path clip-path="url(#p6dd18b5585)" d="M 293.978165 140.256 
L 266.923611 140.256 
L 279.479665 167.310554 
z
" style="fill:none;stroke:#000000;stroke-linejoin:miter;stroke-width:0.5;"/>
   </g>
   <g id="patch_81">
    <path clip-path="url(#p6dd18b5585)" d="M 266.923611 140.256 
L 256.049788 167.310554 
L 279.479665 167.310554 
z
" style="fill:none;stroke:#000000;stroke-linejoin:miter;stroke-width:0.5;"/>
   </g>
   <g id="patch_82">
    <path clip-path="url(#p6dd18b5585)" d="M 321.032719 140.256 
L 293.978165 140.256 
L 279.479665 167.310554 
z
" style="fill:none;stroke:#000000;stroke-linejoin:miter;stroke-width:0.5;"/>
   </g>
   <g id="patch_83">
    <path clip-path="url(#p6dd18b5585)" d="M 321.032719 140.256 
L 279.479665 167.310554 
L 302.909595 167.310554 
z
" style="fill:none;stroke:#000000;stroke-linejoin:miter;stroke-width:0.5;"/>
   </g>
   <g id="patch_84">
    <path clip-path="url(#p6dd18b5585)" d="M 348.087273 140.256 
L 321.032719 140.256 
L 326.339524 167.310554 
z
" style="fill:none;stroke:#000000;stroke-linejoin:miter;stroke-width:0.5;"/>
   </g>
   <g id="patch_85">
    <path clip-path="url(#p6dd18b5585)" d="M 321.032719 140.256 
L 302.909595 167.310554 
L 326.339524 167.310554 
z
" style="fill:none;stroke:#000000;stroke-linejoin:miter;stroke-width:0.5;"/>
   </g>
   <g id="patch_86">
    <path clip-path="url(#p6dd18b5585)" d="M 68.610405 167.310554 
L 45.180476 167.310554 
L 118.123641 194.365108 
z
" style="fill:none;stroke:#000000;stroke-linejoin:miter;stroke-width:0.5;"/>
   </g>
   <g id="patch_87">
    <path clip-path="url(#p6dd18b5585)" d="M 45.180476 167.310554 
L 104.596389 194.365108 
L 118.123641 194.365108 
z
" style="fill:none;stroke:#000000;stroke-linejoin:miter;stroke-width:0.5;"/>
   </g>
   <g id="patch_88">
    <path clip-path="url(#p6dd18b5585)" d="M 92.040335 167.310554 
L 68.610405 167.310554 
L 118.123641 194.365108 
z
" style="fill:none;stroke:#000000;stroke-linejoin:miter;stroke-width:0.5;"/>
   </g>
   <g id="patch_89">
    <path clip-path="url(#p6dd18b5585)" d="M 92.040335 167.310554 
L 118.123641 194.365108 
L 131.650892 194.365108 
z
" style="fill:none;stroke:#000000;stroke-linejoin:miter;stroke-width:0.5;"/>
   </g>
   <g id="patch_90">
    <path clip-path="url(#p6dd18b5585)" d="M 115.470212 167.310554 
L 92.040335 167.310554 
L 145.178195 194.365108 
z
" style="fill:none;stroke:#000000;stroke-linejoin:miter;stroke-width:0.5;"/>
   </g>
   <g id="patch_91">
    <path clip-path="url(#p6dd18b5585)" d="M 92.040335 167.310554 
L 131.650892 194.365108 
L 145.178195 194.365108 
z
" style="fill:none;stroke:#000000;stroke-linejoin:miter;stroke-width:0.5;"/>
   </g>
   <g id="patch_92">
    <path clip-path="url(#p6dd18b5585)" d="M 138.900141 167.310554 
L 115.470212 167.310554 
L 145.178195 194.365108 
z
" style="fill:none;stroke:#000000;stroke-linejoin:miter;stroke-width:0.5;"/>
   </g>
   <g id="patch_93">
    <path clip-path="url(#p6dd18b5585)" d="M 138.900141 167.310554 
L 145.178195 194.365108 
L 158.705446 194.365108 
z
" style="fill:none;stroke:#000000;stroke-linejoin:miter;stroke-width:0.5;"/>
   </g>
   <g id="patch_94">
    <path clip-path="url(#p6dd18b5585)" d="M 162.330071 167.310554 
L 138.900141 167.310554 
L 172.232749 194.365108 
z
" style="fill:none;stroke:#000000;stroke-linejoin:miter;stroke-width:0.5;"/>
   </g>
   <g id="patch_95">
    <path clip-path="url(#p6dd18b5585)" d="M 138.900141 167.310554 
L 158.705446 194.365108 
L 172.232749 194.365108 
z
" style="fill:none;stroke:#000000;stroke-linejoin:miter;stroke-width:0.5;"/>
   </g>
   <g id="patch_96">
    <path clip-path="url(#p6dd18b5585)" d="M 185.76 167.310554 
L 162.330071 167.310554 
L 172.232749 194.365108 
z
" style="fill:none;stroke:#000000;stroke-linejoin:miter;stroke-width:0.5;"/>
   </g>
   <g id="patch_97">
    <path clip-path="url(#p6dd18b5585)" d="M 185.76 167.310554 
L 172.232749 194.365108 
L 185.76 194.365108 
z
" style="fill:none;stroke:#000000;stroke-linejoin:miter;stroke-width:0.5;"/>
   </g>
   <g id="patch_98">
    <path clip-path="url(#p6dd18b5585)" d="M 209.189929 167.310554 
L 185.76 167.310554 
L 199.287251 194.365108 
z
" style="fill:none;stroke:#000000;stroke-linejoin:miter;stroke-width:0.5;"/>
   </g>
   <g id="patch_99">
    <path clip-path="url(#p6dd18b5585)" d="M 185.76 167.310554 
L 185.76 194.365108 
L 199.287251 194.365108 
z
" style="fill:none;stroke:#000000;stroke-linejoin:miter;stroke-width:0.5;"/>
   </g>
   <g id="patch_100">
    <path clip-path="url(#p6dd18b5585)" d="M 232.619859 167.310554 
L 209.189929 167.310554 
L 199.287251 194.365108 
z
" style="fill:none;stroke:#000000;stroke-linejoin:miter;stroke-width:0.5;"/>
   </g>
   <g id="patch_101">
    <path clip-path="url(#p6dd18b5585)" d="M 232.619859 167.310554 
L 199.287251 194.365108 
L 212.814554 194.365108 
z
" style="fill:none;stroke:#000000;stroke-linejoin:miter;stroke-width:0.5;"/>
   </g>
   <g id="patch_102">
    <path clip-path="url(#p6dd18b5585)" d="M 256.049788 167.310554 
L 232.619859 167.310554 
L 226.341805 194.365108 
z
" style="fill:none;stroke:#000000;stroke-linejoin:miter;stroke-width:0.5;"/>
   </g>
   <g id="patch_103">
    <path clip-path="url(#p6dd18b5585)" d="M 232.619859 167.310554 
L 212.814554 194.365108 
L 226.341805 194.365108 
z
" style="fill:none;stroke:#000000;stroke-linejoin:miter;stroke-width:0.5;"/>
   </g>
   <g id="patch_104">
    <path clip-path="url(#p6dd18b5585)" d="M 279.479665 167.310554 
L 256.049788 167.310554 
L 226.341805 194.365108 
z
" style="fill:none;stroke:#000000;stroke-linejoin:miter;stroke-width:0.5;"/>
   </g>
   <g id="patch_105">
    <path clip-path="url(#p6dd18b5585)" d="M 279.479665 167.310554 
L 226.341805 194.365108 
L 239.869108 194.365108 
z
" style="fill:none;stroke:#000000;stroke-linejoin:miter;stroke-width:0.5;"/>
   </g>
   <g id="patch_106">
    <path clip-path="url(#p6dd18b5585)" d="M 302.909595 167.310554 
L 279.479665 167.310554 
L 253.396359 194.365108 
z
" style="fill:none;stroke:#000000;stroke-linejoin:miter;stroke-width:0.5;"/>
   </g>
   <g id="patch_107">
    <path clip-path="url(#p6dd18b5585)" d="M 279.479665 167.310554 
L 239.869108 194.365108 
L 253.396359 194.365108 
z
" style="fill:none;stroke:#000000;stroke-linejoin:miter;stroke-width:0.5;"/>
   </g>
   <g id="patch_108">
    <path clip-path="url(#p6dd18b5585)" d="M 326.339524 167.310554 
L 302.909595 167.310554 
L 253.396359 194.365108 
z
" style="fill:none;stroke:#000000;stroke-linejoin:miter;stroke-width:0.5;"/>
   </g>
   <g id="patch_109">
    <path clip-path="url(#p6dd18b5585)" d="M 326.339524 167.310554 
L 253.396359 194.365108 
L 266.923611 194.365108 
z
" style="fill:none;stroke:#000000;stroke-linejoin:miter;stroke-width:0.5;"/>
   </g>
   <g id="patch_110">
    <path clip-path="url(#p6dd18b5585)" d="M 118.123641 194.365108 
L 104.596389 194.365108 
L 185.76 221.419611 
L 185.76 221.419611 
z
" style="fill:none;stroke:#000000;stroke-linejoin:miter;stroke-width:0.5;"/>
   </g>
   <g id="patch_111">
    <path clip-path="url(#p6dd18b5585)" d="M 131.650892 194.365108 
L 118.123641 194.365108 
L 185.76 221.419611 
L 185.76 221.419611 
z
" style="fill:none;stroke:#000000;stroke-linejoin:miter;stroke-width:0.5;"/>
   </g>
   <g id="patch_112">
    <path clip-path="url(#p6dd18b5585)" d="M 145.178195 194.365108 
L 131.650892 194.365108 
L 185.76 221.419611 
L 185.76 221.419611 
z
" style="fill:none;stroke:#000000;stroke-linejoin:miter;stroke-width:0.5;"/>
   </g>
   <g id="patch_113">
    <path clip-path="url(#p6dd18b5585)" d="M 158.705446 194.365108 
L 145.178195 194.365108 
L 185.76 221.419611 
L 185.76 221.419611 
z
" style="fill:none;stroke:#000000;stroke-linejoin:miter;stroke-width:0.5;"/>
   </g>
   <g id="patch_114">
    <path clip-path="url(#p6dd18b5585)" d="M 172.232749 194.365108 
L 158.705446 194.365108 
L 185.76 221.419611 
L 185.76 221.419611 
z
" style="fill:none;stroke:#000000;stroke-linejoin:miter;stroke-width:0.5;"/>
   </g>
   <g id="patch_115">
    <path clip-path="url(#p6dd18b5585)" d="M 185.76 194.365108 
L 172.232749 194.365108 
L 185.76 221.419611 
L 185.76 221.419611 
z
" style="fill:none;stroke:#000000;stroke-linejoin:miter;stroke-width:0.5;"/>
   </g>
   <g id="patch_116">
    <path clip-path="url(#p6dd18b5585)" d="M 199.287251 194.365108 
L 185.76 194.365108 
L 185.76 221.419611 
L 185.76 221.419611 
z
" style="fill:none;stroke:#000000;stroke-linejoin:miter;stroke-width:0.5;"/>
   </g>
   <g id="patch_117">
    <path clip-path="url(#p6dd18b5585)" d="M 212.814554 194.365108 
L 199.287251 194.365108 
L 185.76 221.419611 
L 185.76 221.419611 
z
" style="fill:none;stroke:#000000;stroke-linejoin:miter;stroke-width:0.5;"/>
   </g>
   <g id="patch_118">
    <path clip-path="url(#p6dd18b5585)" d="M 226.341805 194.365108 
L 212.814554 194.365108 
L 185.76 221.419611 
L 185.76 221.419611 
z
" style="fill:none;stroke:#000000;stroke-linejoin:miter;stroke-width:0.5;"/>
   </g>
   <g id="patch_119">
    <path clip-path="url(#p6dd18b5585)" d="M 239.869108 194.365108 
L 226.341805 194.365108 
L 185.76 221.419611 
L 185.76 221.419611 
z
" style="fill:none;stroke:#000000;stroke-linejoin:miter;stroke-width:0.5;"/>
   </g>
   <g id="patch_120">
    <path clip-path="url(#p6dd18b5585)" d="M 253.396359 194.365108 
L 239.869108 194.365108 
L 185.76 221.419611 
L 185.76 221.419611 
z
" style="fill:none;stroke:#000000;stroke-linejoin:miter;stroke-width:0.5;"/>
   </g>
   <g id="patch_121">
    <path clip-path="url(#p6dd18b5585)" d="M 266.923611 194.365108 
L 253.396359 194.365108 
L 185.76 221.419611 
L 185.76 221.419611 
z
" style="fill:none;stroke:#000000;stroke-linejoin:miter;stroke-width:0.5;"/>
   </g>
   <g id="patch_122">
    <path clip-path="url(#p6dd18b5585)" d="M 185.76 59.092389 
L 104.596389 86.146892 
L 45.180476 113.201446 
L 23.432727 140.256 
L 45.180476 167.310554 
L 104.596389 194.365108 
L 185.76 221.419611 
L 266.923611 194.365108 
L 326.339524 167.310554 
L 348.087273 140.256 
L 326.339524 113.201446 
L 266.923611 86.146892 
z
" style="fill:none;stroke:#000000;stroke-linejoin:miter;"/>
   </g>
  </g>
 </g>
 <defs>
  <clipPath id="p6dd18b5585">
   <rect height="266.112" width="357.12" x="7.2" y="7.2"/>
  </clipPath>
 </defs>
</svg>
