<?xml version="1.0" encoding="utf-8" standalone="no"?>
<!DOCTYPE svg PUBLIC "-//W3C//DTD SVG 1.1//EN"
  "http://www.w3.org/Graphics/SVG/1.1/DTD/svg11.dtd">
<!-- Created with matplotlib (https://matplotlib.org/) -->
<svg height="280.512pt" version="1.1" viewBox="0 0 371.52 280.512" width="371.52pt" xmlns="http://www.w3.org/2000/svg" xmlns:xlink="http://www.w3.org/1999/xlink">
 <defs>
  <style type="text/css">
*{stroke-linecap:butt;stroke-linejoin:round;white-space:pre;}
  </style>
 </defs>
 <g id="figure_1">
  <g id="axes_1">
   <g id="patch_2">
    <path clip-path="url(#p8c69bdacd8)" d="M 185.76 59.092389 
L 104.596389 86.146892 
L 45.180476 113.201446 
L 23.432727 140.256 
L 45.180476 167.310554 
L 104.596389 194.365108 
L 185.76 221.419611 
L 266.923611 194.365108 
L 326.339524 167.310554 
L 348.087273 140.256 
L 326.339524 113.201446 
L 266.923611 86.146892 
z
" style="fill:none;stroke:#000000;stroke-linejoin:miter;"/>
   </g>
   <g id="line2d_1"/>
   <g id="line2d_2">
    <path clip-path="url(#p8c69bdacd8)" d="M 199.291442 63.602889 
L 172.228484 63.602889 
L 172.228484 63.602889 
" style="fill:none;stroke:#000000;stroke-linecap:square;stroke-width:0.5;"/>
   </g>
   <g id="line2d_3">
    <path clip-path="url(#p8c69bdacd8)" d="M 199.291442 63.602889 
" style="fill:none;stroke:#000000;stroke-linecap:square;stroke-width:0.5;"/>
   </g>
   <g id="line2d_4"/>
   <g id="line2d_5">
    <path clip-path="url(#p8c69bdacd8)" d="M 212.818508 68.111931 
L 158.701343 68.111931 
L 158.701343 68.111931 
" style="fill:none;stroke:#000000;stroke-linecap:square;stroke-width:0.5;"/>
   </g>
   <g id="line2d_6">
    <path clip-path="url(#p8c69bdacd8)" d="M 212.818508 68.111931 
" style="fill:none;stroke:#000000;stroke-linecap:square;stroke-width:0.5;"/>
   </g>
   <g id="line2d_7"/>
   <g id="line2d_8">
    <path clip-path="url(#p8c69bdacd8)" d="M 226.345715 72.621019 
L 145.174062 72.621019 
L 145.174062 72.621019 
" style="fill:none;stroke:#000000;stroke-linecap:square;stroke-width:0.5;"/>
   </g>
   <g id="line2d_9">
    <path clip-path="url(#p8c69bdacd8)" d="M 226.345715 72.621019 
" style="fill:none;stroke:#000000;stroke-linecap:square;stroke-width:0.5;"/>
   </g>
   <g id="line2d_10"/>
   <g id="line2d_11">
    <path clip-path="url(#p8c69bdacd8)" d="M 239.872921 77.130107 
L 131.646781 77.130107 
L 131.646781 77.130107 
" style="fill:none;stroke:#000000;stroke-linecap:square;stroke-width:0.5;"/>
   </g>
   <g id="line2d_12">
    <path clip-path="url(#p8c69bdacd8)" d="M 239.872921 77.130107 
" style="fill:none;stroke:#000000;stroke-linecap:square;stroke-width:0.5;"/>
   </g>
   <g id="line2d_13"/>
   <g id="line2d_14">
    <path clip-path="url(#p8c69bdacd8)" d="M 253.400128 81.639195 
L 118.1195 81.639195 
L 118.1195 81.639195 
" style="fill:none;stroke:#000000;stroke-linecap:square;stroke-width:0.5;"/>
   </g>
   <g id="line2d_15">
    <path clip-path="url(#p8c69bdacd8)" d="M 253.400128 81.639195 
" style="fill:none;stroke:#000000;stroke-linecap:square;stroke-width:0.5;"/>
   </g>
   <g id="line2d_16"/>
   <g id="line2d_17">
    <path clip-path="url(#p8c69bdacd8)" d="M 266.925806 86.148097 
L 104.593748 86.148097 
L 104.593748 86.148097 
" style="fill:none;stroke:#000000;stroke-linecap:square;stroke-width:0.5;"/>
   </g>
   <g id="line2d_18">
    <path clip-path="url(#p8c69bdacd8)" d="M 266.925806 86.148097 
" style="fill:none;stroke:#000000;stroke-linecap:square;stroke-width:0.5;"/>
   </g>
   <g id="line2d_19"/>
   <g id="line2d_20">
    <path clip-path="url(#p8c69bdacd8)" d="M 276.828468 90.657194 
L 94.691086 90.657194 
L 94.691086 90.657194 
" style="fill:none;stroke:#000000;stroke-linecap:square;stroke-width:0.5;"/>
   </g>
   <g id="line2d_21">
    <path clip-path="url(#p8c69bdacd8)" d="M 276.828468 90.657194 
" style="fill:none;stroke:#000000;stroke-linecap:square;stroke-width:0.5;"/>
   </g>
   <g id="line2d_22"/>
   <g id="line2d_23">
    <path clip-path="url(#p8c69bdacd8)" d="M 286.730925 95.166197 
L 84.788628 95.166197 
L 84.788628 95.166197 
" style="fill:none;stroke:#000000;stroke-linecap:square;stroke-width:0.5;"/>
   </g>
   <g id="line2d_24">
    <path clip-path="url(#p8c69bdacd8)" d="M 286.730925 95.166197 
" style="fill:none;stroke:#000000;stroke-linecap:square;stroke-width:0.5;"/>
   </g>
   <g id="line2d_25"/>
   <g id="line2d_26">
    <path clip-path="url(#p8c69bdacd8)" d="M 296.633587 99.675294 
L 74.885966 99.675294 
L 74.885966 99.675294 
" style="fill:none;stroke:#000000;stroke-linecap:square;stroke-width:0.5;"/>
   </g>
   <g id="line2d_27">
    <path clip-path="url(#p8c69bdacd8)" d="M 296.633587 99.675294 
" style="fill:none;stroke:#000000;stroke-linecap:square;stroke-width:0.5;"/>
   </g>
   <g id="line2d_28"/>
   <g id="line2d_29">
    <path clip-path="url(#p8c69bdacd8)" d="M 306.536249 104.184391 
L 64.983305 104.184391 
L 64.983305 104.184391 
" style="fill:none;stroke:#000000;stroke-linecap:square;stroke-width:0.5;"/>
   </g>
   <g id="line2d_30">
    <path clip-path="url(#p8c69bdacd8)" d="M 306.536249 104.184391 
" style="fill:none;stroke:#000000;stroke-linecap:square;stroke-width:0.5;"/>
   </g>
   <g id="line2d_31"/>
   <g id="line2d_32">
    <path clip-path="url(#p8c69bdacd8)" d="M 316.438809 108.693441 
L 55.080745 108.693441 
L 55.080745 108.693441 
" style="fill:none;stroke:#000000;stroke-linecap:square;stroke-width:0.5;"/>
   </g>
   <g id="line2d_33">
    <path clip-path="url(#p8c69bdacd8)" d="M 316.438809 108.693441 
" style="fill:none;stroke:#000000;stroke-linecap:square;stroke-width:0.5;"/>
   </g>
   <g id="line2d_34"/>
   <g id="line2d_35">
    <path clip-path="url(#p8c69bdacd8)" d="M 326.339425 113.202444 
L 45.179683 113.202444 
L 45.179683 113.202444 
" style="fill:none;stroke:#000000;stroke-linecap:square;stroke-width:0.5;"/>
   </g>
   <g id="line2d_36">
    <path clip-path="url(#p8c69bdacd8)" d="M 326.339425 113.202444 
" style="fill:none;stroke:#000000;stroke-linecap:square;stroke-width:0.5;"/>
   </g>
   <g id="line2d_37"/>
   <g id="line2d_38">
    <path clip-path="url(#p8c69bdacd8)" d="M 329.963978 117.711448 
L 41.555129 117.711448 
L 41.555129 117.711448 
" style="fill:none;stroke:#000000;stroke-linecap:square;stroke-width:0.5;"/>
   </g>
   <g id="line2d_39">
    <path clip-path="url(#p8c69bdacd8)" d="M 329.963978 117.711448 
" style="fill:none;stroke:#000000;stroke-linecap:square;stroke-width:0.5;"/>
   </g>
   <g id="line2d_40"/>
   <g id="line2d_41">
    <path clip-path="url(#p8c69bdacd8)" d="M 333.588532 122.220452 
L 37.930576 122.220452 
L 37.930576 122.220452 
" style="fill:none;stroke:#000000;stroke-linecap:square;stroke-width:0.5;"/>
   </g>
   <g id="line2d_42">
    <path clip-path="url(#p8c69bdacd8)" d="M 333.588532 122.220452 
" style="fill:none;stroke:#000000;stroke-linecap:square;stroke-width:0.5;"/>
   </g>
   <g id="line2d_43"/>
   <g id="line2d_44">
    <path clip-path="url(#p8c69bdacd8)" d="M 337.21316 126.729548 
L 34.305948 126.729548 
L 34.305948 126.729548 
" style="fill:none;stroke:#000000;stroke-linecap:square;stroke-width:0.5;"/>
   </g>
   <g id="line2d_45">
    <path clip-path="url(#p8c69bdacd8)" d="M 337.21316 126.729548 
" style="fill:none;stroke:#000000;stroke-linecap:square;stroke-width:0.5;"/>
   </g>
   <g id="line2d_46"/>
   <g id="line2d_47">
    <path clip-path="url(#p8c69bdacd8)" d="M 340.837713 131.238552 
L 30.681394 131.238552 
L 30.681394 131.238552 
" style="fill:none;stroke:#000000;stroke-linecap:square;stroke-width:0.5;"/>
   </g>
   <g id="line2d_48">
    <path clip-path="url(#p8c69bdacd8)" d="M 340.837713 131.238552 
" style="fill:none;stroke:#000000;stroke-linecap:square;stroke-width:0.5;"/>
   </g>
   <g id="line2d_49"/>
   <g id="line2d_50">
    <path clip-path="url(#p8c69bdacd8)" d="M 344.462342 135.747649 
L 27.056766 135.747649 
L 27.056766 135.747649 
" style="fill:none;stroke:#000000;stroke-linecap:square;stroke-width:0.5;"/>
   </g>
   <g id="line2d_51">
    <path clip-path="url(#p8c69bdacd8)" d="M 344.462342 135.747649 
" style="fill:none;stroke:#000000;stroke-linecap:square;stroke-width:0.5;"/>
   </g>
   <g id="line2d_52"/>
   <g id="line2d_53">
    <path clip-path="url(#p8c69bdacd8)" d="M 348.085772 140.256745 
L 23.433336 140.256745 
L 23.433336 140.256745 
" style="fill:none;stroke:#000000;stroke-linecap:square;stroke-width:0.5;"/>
   </g>
   <g id="line2d_54">
    <path clip-path="url(#p8c69bdacd8)" d="M 348.085772 140.256745 
" style="fill:none;stroke:#000000;stroke-linecap:square;stroke-width:0.5;"/>
   </g>
   <g id="line2d_55"/>
   <g id="line2d_56">
    <path clip-path="url(#p8c69bdacd8)" d="M 344.461181 144.765796 
L 27.057927 144.765796 
L 27.057927 144.765796 
" style="fill:none;stroke:#000000;stroke-linecap:square;stroke-width:0.5;"/>
   </g>
   <g id="line2d_57">
    <path clip-path="url(#p8c69bdacd8)" d="M 344.461181 144.765796 
" style="fill:none;stroke:#000000;stroke-linecap:square;stroke-width:0.5;"/>
   </g>
   <g id="line2d_58"/>
   <g id="line2d_59">
    <path clip-path="url(#p8c69bdacd8)" d="M 340.836627 149.274799 
L 30.68248 149.274799 
L 30.68248 149.274799 
" style="fill:none;stroke:#000000;stroke-linecap:square;stroke-width:0.5;"/>
   </g>
   <g id="line2d_60">
    <path clip-path="url(#p8c69bdacd8)" d="M 340.836627 149.274799 
" style="fill:none;stroke:#000000;stroke-linecap:square;stroke-width:0.5;"/>
   </g>
   <g id="line2d_61"/>
   <g id="line2d_62">
    <path clip-path="url(#p8c69bdacd8)" d="M 337.212074 153.783803 
L 34.307034 153.783803 
L 34.307034 153.783803 
" style="fill:none;stroke:#000000;stroke-linecap:square;stroke-width:0.5;"/>
   </g>
   <g id="line2d_63">
    <path clip-path="url(#p8c69bdacd8)" d="M 337.212074 153.783803 
" style="fill:none;stroke:#000000;stroke-linecap:square;stroke-width:0.5;"/>
   </g>
   <g id="line2d_64"/>
   <g id="line2d_65">
    <path clip-path="url(#p8c69bdacd8)" d="M 333.587371 158.292993 
L 37.931737 158.292993 
L 37.931737 158.292993 
" style="fill:none;stroke:#000000;stroke-linecap:square;stroke-width:0.5;"/>
   </g>
   <g id="line2d_66">
    <path clip-path="url(#p8c69bdacd8)" d="M 333.587371 158.292993 
" style="fill:none;stroke:#000000;stroke-linecap:square;stroke-width:0.5;"/>
   </g>
   <g id="line2d_67"/>
   <g id="line2d_68">
    <path clip-path="url(#p8c69bdacd8)" d="M 329.962817 162.801996 
L 41.55629 162.801996 
L 41.55629 162.801996 
" style="fill:none;stroke:#000000;stroke-linecap:square;stroke-width:0.5;"/>
   </g>
   <g id="line2d_69">
    <path clip-path="url(#p8c69bdacd8)" d="M 329.962817 162.801996 
" style="fill:none;stroke:#000000;stroke-linecap:square;stroke-width:0.5;"/>
   </g>
   <g id="line2d_70"/>
   <g id="line2d_71">
    <path clip-path="url(#p8c69bdacd8)" d="M 326.337928 167.311 
L 45.181459 167.311 
L 45.181459 167.311 
" style="fill:none;stroke:#000000;stroke-linecap:square;stroke-width:0.5;"/>
   </g>
   <g id="line2d_72">
    <path clip-path="url(#p8c69bdacd8)" d="M 326.337928 167.311 
" style="fill:none;stroke:#000000;stroke-linecap:square;stroke-width:0.5;"/>
   </g>
   <g id="line2d_73"/>
   <g id="line2d_74">
    <path clip-path="url(#p8c69bdacd8)" d="M 316.435637 171.820003 
L 55.083917 171.820003 
L 55.083917 171.820003 
" style="fill:none;stroke:#000000;stroke-linecap:square;stroke-width:0.5;"/>
   </g>
   <g id="line2d_75">
    <path clip-path="url(#p8c69bdacd8)" d="M 316.435637 171.820003 
" style="fill:none;stroke:#000000;stroke-linecap:square;stroke-width:0.5;"/>
   </g>
   <g id="line2d_76"/>
   <g id="line2d_77">
    <path clip-path="url(#p8c69bdacd8)" d="M 306.533078 176.329053 
L 64.986476 176.329053 
L 64.986476 176.329053 
" style="fill:none;stroke:#000000;stroke-linecap:square;stroke-width:0.5;"/>
   </g>
   <g id="line2d_78">
    <path clip-path="url(#p8c69bdacd8)" d="M 306.533078 176.329053 
" style="fill:none;stroke:#000000;stroke-linecap:square;stroke-width:0.5;"/>
   </g>
   <g id="line2d_79"/>
   <g id="line2d_80">
    <path clip-path="url(#p8c69bdacd8)" d="M 296.630416 180.83815 
L 74.889138 180.83815 
L 74.889138 180.83815 
" style="fill:none;stroke:#000000;stroke-linecap:square;stroke-width:0.5;"/>
   </g>
   <g id="line2d_81">
    <path clip-path="url(#p8c69bdacd8)" d="M 296.630416 180.83815 
" style="fill:none;stroke:#000000;stroke-linecap:square;stroke-width:0.5;"/>
   </g>
   <g id="line2d_82"/>
   <g id="line2d_83">
    <path clip-path="url(#p8c69bdacd8)" d="M 286.727754 185.347247 
L 84.7918 185.347247 
L 84.7918 185.347247 
" style="fill:none;stroke:#000000;stroke-linecap:square;stroke-width:0.5;"/>
   </g>
   <g id="line2d_84">
    <path clip-path="url(#p8c69bdacd8)" d="M 286.727754 185.347247 
" style="fill:none;stroke:#000000;stroke-linecap:square;stroke-width:0.5;"/>
   </g>
   <g id="line2d_85"/>
   <g id="line2d_86">
    <path clip-path="url(#p8c69bdacd8)" d="M 276.825092 189.856344 
L 94.694462 189.856344 
L 94.694462 189.856344 
" style="fill:none;stroke:#000000;stroke-linecap:square;stroke-width:0.5;"/>
   </g>
   <g id="line2d_87">
    <path clip-path="url(#p8c69bdacd8)" d="M 276.825092 189.856344 
" style="fill:none;stroke:#000000;stroke-linecap:square;stroke-width:0.5;"/>
   </g>
   <g id="line2d_88"/>
   <g id="line2d_89">
    <path clip-path="url(#p8c69bdacd8)" d="M 266.922443 194.365347 
L 104.597111 194.365347 
L 104.597111 194.365347 
" style="fill:none;stroke:#000000;stroke-linecap:square;stroke-width:0.5;"/>
   </g>
   <g id="line2d_90">
    <path clip-path="url(#p8c69bdacd8)" d="M 266.922443 194.365347 
" style="fill:none;stroke:#000000;stroke-linecap:square;stroke-width:0.5;"/>
   </g>
   <g id="line2d_91"/>
   <g id="line2d_92">
    <path clip-path="url(#p8c69bdacd8)" d="M 253.395795 198.874249 
L 118.123833 198.874249 
L 118.123833 198.874249 
" style="fill:none;stroke:#000000;stroke-linecap:square;stroke-width:0.5;"/>
   </g>
   <g id="line2d_93">
    <path clip-path="url(#p8c69bdacd8)" d="M 253.395795 198.874249 
" style="fill:none;stroke:#000000;stroke-linecap:square;stroke-width:0.5;"/>
   </g>
   <g id="line2d_94"/>
   <g id="line2d_95">
    <path clip-path="url(#p8c69bdacd8)" d="M 239.868589 203.383337 
L 131.651114 203.383337 
L 131.651114 203.383337 
" style="fill:none;stroke:#000000;stroke-linecap:square;stroke-width:0.5;"/>
   </g>
   <g id="line2d_96">
    <path clip-path="url(#p8c69bdacd8)" d="M 239.868589 203.383337 
" style="fill:none;stroke:#000000;stroke-linecap:square;stroke-width:0.5;"/>
   </g>
   <g id="line2d_97"/>
   <g id="line2d_98">
    <path clip-path="url(#p8c69bdacd8)" d="M 226.341522 207.892378 
L 145.178255 207.892378 
L 145.178255 207.892378 
" style="fill:none;stroke:#000000;stroke-linecap:square;stroke-width:0.5;"/>
   </g>
   <g id="line2d_99">
    <path clip-path="url(#p8c69bdacd8)" d="M 226.341522 207.892378 
" style="fill:none;stroke:#000000;stroke-linecap:square;stroke-width:0.5;"/>
   </g>
   <g id="line2d_100"/>
   <g id="line2d_101">
    <path clip-path="url(#p8c69bdacd8)" d="M 212.814036 212.40156 
L 158.705815 212.40156 
L 158.705815 212.40156 
" style="fill:none;stroke:#000000;stroke-linecap:square;stroke-width:0.5;"/>
   </g>
   <g id="line2d_102">
    <path clip-path="url(#p8c69bdacd8)" d="M 212.814036 212.40156 
" style="fill:none;stroke:#000000;stroke-linecap:square;stroke-width:0.5;"/>
   </g>
   <g id="line2d_103"/>
   <g id="line2d_104">
    <path clip-path="url(#p8c69bdacd8)" d="M 199.287109 216.910555 
L 172.232816 216.910555 
L 172.232816 216.910555 
" style="fill:none;stroke:#000000;stroke-linecap:square;stroke-width:0.5;"/>
   </g>
   <g id="line2d_105">
    <path clip-path="url(#p8c69bdacd8)" d="M 199.287109 216.910555 
" style="fill:none;stroke:#000000;stroke-linecap:square;stroke-width:0.5;"/>
   </g>
   <g id="line2d_106"/>
   <g id="line2d_107">
    <path clip-path="url(#p8c69bdacd8)" d="M 185.762705 221.418709 
L 266.922078 194.365114 
L 326.336915 167.310534 
L 348.084244 140.256 
L 326.336852 113.201419 
L 266.922077 86.146885 
L 185.76 59.092389 
L 185.76 59.092389 
" style="fill:none;stroke:#000000;stroke-linecap:square;stroke-width:0.5;"/>
   </g>
   <g id="line2d_108">
    <path clip-path="url(#p8c69bdacd8)" d="M 185.762705 221.418709 
" style="fill:none;stroke:#000000;stroke-linecap:square;stroke-width:0.5;"/>
   </g>
   <g id="line2d_109"/>
   <g id="line2d_110">
    <path clip-path="url(#p8c69bdacd8)" d="M 185.76263 221.418709 
L 265.657869 193.914186 
L 315.005028 171.368702 
L 322.431963 167.310534 
L 326.177008 161.899627 
L 343.575194 140.256 
L 324.848357 116.808706 
L 322.4319 113.201419 
L 313.190564 108.241441 
L 264.667556 86.146885 
L 185.76 59.092389 
L 185.76 59.092389 
" style="fill:none;stroke:#000000;stroke-linecap:square;stroke-width:0.5;"/>
   </g>
   <g id="line2d_111">
    <path clip-path="url(#p8c69bdacd8)" d="M 185.76263 221.418709 
" style="fill:none;stroke:#000000;stroke-linecap:square;stroke-width:0.5;"/>
   </g>
   <g id="line2d_112"/>
   <g id="line2d_113">
    <path clip-path="url(#p8c69bdacd8)" d="M 185.762555 221.418709 
L 263.403325 193.914186 
L 302.847822 175.877799 
L 318.526971 167.310534 
L 325.29254 157.39053 
L 339.066097 140.256 
L 323.963888 121.317803 
L 318.526908 113.201419 
L 301.033358 103.732344 
L 262.413013 86.146885 
L 185.76 59.092389 
L 185.76 59.092389 
" style="fill:none;stroke:#000000;stroke-linecap:square;stroke-width:0.5;"/>
   </g>
   <g id="line2d_114">
    <path clip-path="url(#p8c69bdacd8)" d="M 185.762555 221.418709 
" style="fill:none;stroke:#000000;stroke-linecap:square;stroke-width:0.5;"/>
   </g>
   <g id="line2d_115"/>
   <g id="line2d_116">
    <path clip-path="url(#p8c69bdacd8)" d="M 185.76248 221.418709 
L 261.148828 193.914186 
L 290.690697 180.386896 
L 314.62206 167.310534 
L 324.408164 152.881433 
L 334.557093 140.256 
L 323.0795 125.826899 
L 314.621997 113.201419 
L 288.876198 99.223247 
L 258.918552 85.695981 
L 185.76 59.092389 
L 185.76 59.092389 
" style="fill:none;stroke:#000000;stroke-linecap:square;stroke-width:0.5;"/>
   </g>
   <g id="line2d_117">
    <path clip-path="url(#p8c69bdacd8)" d="M 185.76248 221.418709 
" style="fill:none;stroke:#000000;stroke-linecap:square;stroke-width:0.5;"/>
   </g>
   <g id="line2d_118"/>
   <g id="line2d_119">
    <path clip-path="url(#p8c69bdacd8)" d="M 185.762405 221.418709 
L 258.894307 193.914186 
L 278.533531 184.895992 
L 310.717108 167.310534 
L 323.523743 148.372337 
L 330.048043 140.256 
L 322.195072 130.335996 
L 310.717045 113.201419 
L 276.719015 94.714151 
L 256.701607 85.695981 
L 185.76 59.092389 
L 185.76 59.092389 
" style="fill:none;stroke:#000000;stroke-linecap:square;stroke-width:0.5;"/>
   </g>
   <g id="line2d_120">
    <path clip-path="url(#p8c69bdacd8)" d="M 185.762405 221.418709 
" style="fill:none;stroke:#000000;stroke-linecap:square;stroke-width:0.5;"/>
   </g>
   <g id="line2d_121"/>
   <g id="line2d_122">
    <path clip-path="url(#p8c69bdacd8)" d="M 185.76233 221.418709 
L 256.639786 193.914186 
L 266.376366 189.405089 
L 306.812156 167.310534 
L 322.639283 143.863286 
L 325.538993 140.256 
L 321.310629 134.84507 
L 306.812094 113.201419 
L 264.561833 90.205054 
L 254.484661 85.695981 
L 185.76 59.092389 
L 185.76 59.092389 
" style="fill:none;stroke:#000000;stroke-linecap:square;stroke-width:0.5;"/>
   </g>
   <g id="line2d_123">
    <path clip-path="url(#p8c69bdacd8)" d="M 185.76233 221.418709 
" style="fill:none;stroke:#000000;stroke-linecap:square;stroke-width:0.5;"/>
   </g>
   <g id="line2d_124"/>
   <g id="line2d_125">
    <path clip-path="url(#p8c69bdacd8)" d="M 185.762254 221.418709 
L 253.394957 194.365114 
L 302.907205 167.310534 
L 321.029943 140.256 
L 302.907142 113.201419 
L 253.394955 86.146885 
L 185.76 59.092389 
L 185.76 59.092389 
" style="fill:none;stroke:#000000;stroke-linecap:square;stroke-width:0.5;"/>
   </g>
   <g id="line2d_126">
    <path clip-path="url(#p8c69bdacd8)" d="M 185.762254 221.418709 
" style="fill:none;stroke:#000000;stroke-linecap:square;stroke-width:0.5;"/>
   </g>
   <g id="line2d_127"/>
   <g id="line2d_128">
    <path clip-path="url(#p8c69bdacd8)" d="M 185.762179 221.418709 
L 251.140436 194.365114 
L 258.566463 189.405089 
L 299.002253 167.310534 
L 314.587753 143.863286 
L 316.520893 140.256 
L 313.500725 134.84507 
L 299.00219 113.201419 
L 257.082003 90.205054 
L 251.140435 86.146885 
L 185.76 59.092389 
L 185.76 59.092389 
" style="fill:none;stroke:#000000;stroke-linecap:square;stroke-width:0.5;"/>
   </g>
   <g id="line2d_129">
    <path clip-path="url(#p8c69bdacd8)" d="M 185.762179 221.418709 
" style="fill:none;stroke:#000000;stroke-linecap:square;stroke-width:0.5;"/>
   </g>
   <g id="line2d_130"/>
   <g id="line2d_131">
    <path clip-path="url(#p8c69bdacd8)" d="M 185.762104 221.418709 
L 248.885916 194.365114 
L 262.913725 184.895992 
L 295.097301 167.310534 
L 307.662309 148.372337 
L 312.011843 140.256 
L 306.575266 130.335996 
L 295.097239 113.201419 
L 261.429249 94.714151 
L 248.885915 86.146885 
L 185.76 59.092389 
L 185.76 59.092389 
" style="fill:none;stroke:#000000;stroke-linecap:square;stroke-width:0.5;"/>
   </g>
   <g id="line2d_132">
    <path clip-path="url(#p8c69bdacd8)" d="M 185.762104 221.418709 
" style="fill:none;stroke:#000000;stroke-linecap:square;stroke-width:0.5;"/>
   </g>
   <g id="line2d_133"/>
   <g id="line2d_134">
    <path clip-path="url(#p8c69bdacd8)" d="M 185.762029 221.418709 
L 246.631396 194.365114 
L 267.260987 180.386896 
L 291.19235 167.310534 
L 300.73684 152.881433 
L 307.502792 140.256 
L 299.64979 125.826899 
L 291.192287 113.201419 
L 265.776494 99.223247 
L 246.631395 86.146885 
L 185.76 59.092389 
L 185.76 59.092389 
" style="fill:none;stroke:#000000;stroke-linecap:square;stroke-width:0.5;"/>
   </g>
   <g id="line2d_135">
    <path clip-path="url(#p8c69bdacd8)" d="M 185.762029 221.418709 
" style="fill:none;stroke:#000000;stroke-linecap:square;stroke-width:0.5;"/>
   </g>
   <g id="line2d_136"/>
   <g id="line2d_137">
    <path clip-path="url(#p8c69bdacd8)" d="M 185.761954 221.418709 
L 244.376876 194.365114 
L 271.608249 175.877799 
L 287.287398 167.310534 
L 293.811371 157.39053 
L 302.993742 140.256 
L 292.724315 121.317803 
L 287.287335 113.201419 
L 270.123739 103.732344 
L 244.376874 86.146885 
L 185.76 59.092389 
L 185.76 59.092389 
" style="fill:none;stroke:#000000;stroke-linecap:square;stroke-width:0.5;"/>
   </g>
   <g id="line2d_138">
    <path clip-path="url(#p8c69bdacd8)" d="M 185.761954 221.418709 
" style="fill:none;stroke:#000000;stroke-linecap:square;stroke-width:0.5;"/>
   </g>
   <g id="line2d_139"/>
   <g id="line2d_140">
    <path clip-path="url(#p8c69bdacd8)" d="M 185.761879 221.418709 
L 242.122355 194.365114 
L 275.955512 171.368702 
L 283.382446 167.310534 
L 286.885902 161.899627 
L 298.484692 140.256 
L 285.79884 116.808706 
L 283.382384 113.201419 
L 274.470984 108.241441 
L 242.122354 86.146885 
L 185.76 59.092389 
L 185.76 59.092389 
" style="fill:none;stroke:#000000;stroke-linecap:square;stroke-width:0.5;"/>
   </g>
   <g id="line2d_141">
    <path clip-path="url(#p8c69bdacd8)" d="M 185.761879 221.418709 
" style="fill:none;stroke:#000000;stroke-linecap:square;stroke-width:0.5;"/>
   </g>
   <g id="line2d_142"/>
   <g id="line2d_143">
    <path clip-path="url(#p8c69bdacd8)" d="M 185.761804 221.418709 
L 240.528042 193.914186 
L 279.477489 167.310534 
L 293.975642 140.256 
L 279.477452 113.201419 
L 239.867834 86.146885 
L 185.76 59.092389 
L 185.76 59.092389 
" style="fill:none;stroke:#000000;stroke-linecap:square;stroke-width:0.5;"/>
   </g>
   <g id="line2d_144">
    <path clip-path="url(#p8c69bdacd8)" d="M 185.761804 221.418709 
" style="fill:none;stroke:#000000;stroke-linecap:square;stroke-width:0.5;"/>
   </g>
   <g id="line2d_145"/>
   <g id="line2d_146">
    <path clip-path="url(#p8c69bdacd8)" d="M 185.761728 221.418709 
L 238.273513 193.914186 
L 271.116379 171.368702 
L 275.572546 167.310534 
L 277.626175 162.350509 
L 289.466592 140.256 
L 277.022375 116.808706 
L 275.572509 113.201419 
L 269.961934 108.241441 
L 237.613305 86.146885 
L 185.76 59.092389 
L 185.76 59.092389 
" style="fill:none;stroke:#000000;stroke-linecap:square;stroke-width:0.5;"/>
   </g>
   <g id="line2d_147">
    <path clip-path="url(#p8c69bdacd8)" d="M 185.761728 221.418709 
" style="fill:none;stroke:#000000;stroke-linecap:square;stroke-width:0.5;"/>
   </g>
   <g id="line2d_148"/>
   <g id="line2d_149">
    <path clip-path="url(#p8c69bdacd8)" d="M 185.761653 221.418709 
L 236.018983 193.914186 
L 262.260101 175.877799 
L 271.667603 167.310534 
L 275.533543 157.841412 
L 284.957542 140.256 
L 274.929738 121.317803 
L 271.667566 113.201419 
L 261.105639 103.732344 
L 234.532137 85.695981 
L 185.76 59.092389 
L 185.76 59.092389 
" style="fill:none;stroke:#000000;stroke-linecap:square;stroke-width:0.5;"/>
   </g>
   <g id="line2d_150">
    <path clip-path="url(#p8c69bdacd8)" d="M 185.761653 221.418709 
" style="fill:none;stroke:#000000;stroke-linecap:square;stroke-width:0.5;"/>
   </g>
   <g id="line2d_151"/>
   <g id="line2d_152">
    <path clip-path="url(#p8c69bdacd8)" d="M 185.761578 221.418709 
L 233.764454 193.914186 
L 253.403823 180.386896 
L 267.76266 167.310534 
L 273.440912 153.332315 
L 280.448492 140.256 
L 272.8371 125.826899 
L 267.762623 113.201419 
L 252.249343 99.223247 
L 232.315184 85.695981 
L 185.76 59.092389 
L 185.76 59.092389 
" style="fill:none;stroke:#000000;stroke-linecap:square;stroke-width:0.5;"/>
   </g>
   <g id="line2d_153">
    <path clip-path="url(#p8c69bdacd8)" d="M 185.761578 221.418709 
" style="fill:none;stroke:#000000;stroke-linecap:square;stroke-width:0.5;"/>
   </g>
   <g id="line2d_154"/>
   <g id="line2d_155">
    <path clip-path="url(#p8c69bdacd8)" d="M 185.761503 221.418709 
L 232.170105 193.463257 
L 244.547504 184.895992 
L 263.857677 167.310534 
L 271.348234 148.823218 
L 275.939395 140.256 
L 270.744423 130.335996 
L 263.857639 113.201419 
L 243.393025 94.714151 
L 229.346719 85.245077 
L 185.76 59.092389 
L 185.76 59.092389 
" style="fill:none;stroke:#000000;stroke-linecap:square;stroke-width:0.5;"/>
   </g>
   <g id="line2d_156">
    <path clip-path="url(#p8c69bdacd8)" d="M 185.761503 221.418709 
" style="fill:none;stroke:#000000;stroke-linecap:square;stroke-width:0.5;"/>
   </g>
   <g id="line2d_157"/>
   <g id="line2d_158">
    <path clip-path="url(#p8c69bdacd8)" d="M 185.761428 221.418709 
L 230.575803 193.012329 
L 235.691266 189.405089 
L 259.952774 167.310534 
L 269.2556 144.314215 
L 271.430391 140.256 
L 268.651816 134.84507 
L 259.952736 113.201419 
L 234.536753 90.205054 
L 226.453413 84.79415 
L 185.76 59.092389 
L 185.76 59.092389 
" style="fill:none;stroke:#000000;stroke-linecap:square;stroke-width:0.5;"/>
   </g>
   <g id="line2d_159">
    <path clip-path="url(#p8c69bdacd8)" d="M 185.761428 221.418709 
" style="fill:none;stroke:#000000;stroke-linecap:square;stroke-width:0.5;"/>
   </g>
   <g id="line2d_160"/>
   <g id="line2d_161">
    <path clip-path="url(#p8c69bdacd8)" d="M 185.761353 221.418709 
L 226.834988 193.914186 
L 256.047831 167.310534 
L 266.921341 140.256 
L 256.047793 113.201419 
L 226.340661 86.146885 
L 185.76 59.092389 
L 185.76 59.092389 
" style="fill:none;stroke:#000000;stroke-linecap:square;stroke-width:0.5;"/>
   </g>
   <g id="line2d_162">
    <path clip-path="url(#p8c69bdacd8)" d="M 185.761353 221.418709 
" style="fill:none;stroke:#000000;stroke-linecap:square;stroke-width:0.5;"/>
   </g>
   <g id="line2d_163"/>
   <g id="line2d_164">
    <path clip-path="url(#p8c69bdacd8)" d="M 185.761278 221.418709 
L 224.086141 194.365114 
L 227.387033 189.856017 
L 252.142879 167.310534 
L 261.324904 144.314215 
L 262.4123 140.256 
L 261.02315 135.295975 
L 252.142842 113.201419 
L 227.387032 90.655982 
L 224.086141 86.146885 
L 185.76 59.092389 
L 185.76 59.092389 
" style="fill:none;stroke:#000000;stroke-linecap:square;stroke-width:0.5;"/>
   </g>
   <g id="line2d_165">
    <path clip-path="url(#p8c69bdacd8)" d="M 185.761278 221.418709 
" style="fill:none;stroke:#000000;stroke-linecap:square;stroke-width:0.5;"/>
   </g>
   <g id="line2d_166"/>
   <g id="line2d_167">
    <path clip-path="url(#p8c69bdacd8)" d="M 185.761202 221.418709 
L 221.831621 194.365114 
L 228.433399 185.346921 
L 248.237928 167.310534 
L 255.607678 148.823218 
L 257.903258 140.256 
L 255.305902 130.786901 
L 248.23789 113.201419 
L 228.433399 95.165079 
L 221.83162 86.146885 
L 185.76 59.092389 
L 185.76 59.092389 
" style="fill:none;stroke:#000000;stroke-linecap:square;stroke-width:0.5;"/>
   </g>
   <g id="line2d_168">
    <path clip-path="url(#p8c69bdacd8)" d="M 185.761202 221.418709 
" style="fill:none;stroke:#000000;stroke-linecap:square;stroke-width:0.5;"/>
   </g>
   <g id="line2d_169"/>
   <g id="line2d_170">
    <path clip-path="url(#p8c69bdacd8)" d="M 185.761127 221.418709 
L 219.577101 194.365114 
L 229.479766 180.837824 
L 244.332976 167.310534 
L 249.890427 153.332315 
L 253.394217 140.256 
L 249.588645 126.277804 
L 244.332938 113.201419 
L 229.479748 99.674152 
L 219.5771 86.146885 
L 185.76 59.092389 
L 185.76 59.092389 
" style="fill:none;stroke:#000000;stroke-linecap:square;stroke-width:0.5;"/>
   </g>
   <g id="line2d_171">
    <path clip-path="url(#p8c69bdacd8)" d="M 185.761127 221.418709 
" style="fill:none;stroke:#000000;stroke-linecap:square;stroke-width:0.5;"/>
   </g>
   <g id="line2d_172"/>
   <g id="line2d_173">
    <path clip-path="url(#p8c69bdacd8)" d="M 185.761052 221.418709 
L 217.322581 194.365114 
L 230.526132 176.328727 
L 240.428024 167.310534 
L 244.173176 157.841412 
L 248.885175 140.256 
L 243.871388 121.768708 
L 240.427987 113.201419 
L 230.526115 104.183249 
L 217.32258 86.146885 
L 185.76 59.092389 
L 185.76 59.092389 
" style="fill:none;stroke:#000000;stroke-linecap:square;stroke-width:0.5;"/>
   </g>
   <g id="line2d_174">
    <path clip-path="url(#p8c69bdacd8)" d="M 185.761052 221.418709 
" style="fill:none;stroke:#000000;stroke-linecap:square;stroke-width:0.5;"/>
   </g>
   <g id="line2d_175"/>
   <g id="line2d_176">
    <path clip-path="url(#p8c69bdacd8)" d="M 185.760977 221.418709 
L 215.398165 193.914186 
L 231.572499 171.81963 
L 236.523073 167.310534 
L 238.455925 162.350509 
L 244.376134 140.256 
L 238.15413 117.259611 
L 236.523035 113.201419 
L 231.572482 108.692346 
L 215.06806 86.146885 
L 185.76 59.092389 
L 185.76 59.092389 
" style="fill:none;stroke:#000000;stroke-linecap:square;stroke-width:0.5;"/>
   </g>
   <g id="line2d_177">
    <path clip-path="url(#p8c69bdacd8)" d="M 185.760977 221.418709 
" style="fill:none;stroke:#000000;stroke-linecap:square;stroke-width:0.5;"/>
   </g>
   <g id="line2d_178"/>
   <g id="line2d_179">
    <path clip-path="url(#p8c69bdacd8)" d="M 185.760902 221.418709 
L 213.143644 193.914186 
L 232.618115 167.310534 
L 239.867092 140.256 
L 232.618103 113.201419 
L 212.81354 86.146885 
L 185.76 59.092389 
L 185.76 59.092389 
" style="fill:none;stroke:#000000;stroke-linecap:square;stroke-width:0.5;"/>
   </g>
   <g id="line2d_180">
    <path clip-path="url(#p8c69bdacd8)" d="M 185.760902 221.418709 
" style="fill:none;stroke:#000000;stroke-linecap:square;stroke-width:0.5;"/>
   </g>
   <g id="line2d_181"/>
   <g id="line2d_182">
    <path clip-path="url(#p8c69bdacd8)" d="M 185.760827 221.418709 
L 210.889115 193.914186 
L 227.062721 171.81963 
L 228.773577 166.859605 
L 229.437833 162.350509 
L 235.358042 140.256 
L 229.256852 117.259611 
L 228.548108 112.750514 
L 227.062712 108.692346 
L 210.145698 85.695981 
L 185.76 59.092389 
L 185.76 59.092389 
" style="fill:none;stroke:#000000;stroke-linecap:square;stroke-width:0.5;"/>
   </g>
   <g id="line2d_183">
    <path clip-path="url(#p8c69bdacd8)" d="M 185.760827 221.418709 
" style="fill:none;stroke:#000000;stroke-linecap:square;stroke-width:0.5;"/>
   </g>
   <g id="line2d_184"/>
   <g id="line2d_185">
    <path clip-path="url(#p8c69bdacd8)" d="M 185.760751 221.418709 
L 209.29479 193.012329 
L 221.507321 176.328727 
L 224.868625 166.859605 
L 226.136993 157.841412 
L 230.848992 140.256 
L 225.956005 121.768708 
L 224.643156 112.750514 
L 221.507312 104.183249 
L 207.553006 85.245077 
L 185.76 59.092389 
L 185.76 59.092389 
" style="fill:none;stroke:#000000;stroke-linecap:square;stroke-width:0.5;"/>
   </g>
   <g id="line2d_186">
    <path clip-path="url(#p8c69bdacd8)" d="M 185.760751 221.418709 
" style="fill:none;stroke:#000000;stroke-linecap:square;stroke-width:0.5;"/>
   </g>
   <g id="line2d_187"/>
   <g id="line2d_188">
    <path clip-path="url(#p8c69bdacd8)" d="M 185.760676 221.418709 
L 211.661489 186.699612 
L 215.951921 180.837824 
L 220.963673 166.859605 
L 222.836152 153.332315 
L 226.339942 140.256 
L 222.655158 126.277804 
L 220.738205 112.750514 
L 215.951913 99.674152 
L 201.653784 80.285061 
L 185.76 59.092389 
L 185.76 59.092389 
" style="fill:none;stroke:#000000;stroke-linecap:square;stroke-width:0.5;"/>
   </g>
   <g id="line2d_189">
    <path clip-path="url(#p8c69bdacd8)" d="M 185.760676 221.418709 
" style="fill:none;stroke:#000000;stroke-linecap:square;stroke-width:0.5;"/>
   </g>
   <g id="line2d_190"/>
   <g id="line2d_191">
    <path clip-path="url(#p8c69bdacd8)" d="M 185.760601 221.418709 
L 205.1158 192.561447 
L 210.396522 185.346921 
L 217.058722 166.859605 
L 219.535311 148.823218 
L 221.830891 140.256 
L 219.354311 130.786901 
L 216.833253 112.750514 
L 210.396521 95.165079 
L 202.29247 83.892341 
L 185.76 59.092389 
L 185.76 59.092389 
" style="fill:none;stroke:#000000;stroke-linecap:square;stroke-width:0.5;"/>
   </g>
   <g id="line2d_192">
    <path clip-path="url(#p8c69bdacd8)" d="M 185.760601 221.418709 
" style="fill:none;stroke:#000000;stroke-linecap:square;stroke-width:0.5;"/>
   </g>
   <g id="line2d_193"/>
   <g id="line2d_194">
    <path clip-path="url(#p8c69bdacd8)" d="M 185.760526 221.418709 
L 201.870997 193.914186 
L 204.841122 189.856017 
L 213.15377 166.859605 
L 216.234445 144.314215 
L 217.321841 140.256 
L 216.053461 135.295975 
L 212.928301 112.750514 
L 204.841122 90.655982 
L 201.01487 85.245077 
L 185.76 59.092389 
L 185.76 59.092389 
" style="fill:none;stroke:#000000;stroke-linecap:square;stroke-width:0.5;"/>
   </g>
   <g id="line2d_195">
    <path clip-path="url(#p8c69bdacd8)" d="M 185.760526 221.418709 
" style="fill:none;stroke:#000000;stroke-linecap:square;stroke-width:0.5;"/>
   </g>
   <g id="line2d_196"/>
   <g id="line2d_197">
    <path clip-path="url(#p8c69bdacd8)" d="M 185.760451 221.418709 
L 199.615826 193.463257 
L 209.248818 166.859605 
L 212.812791 140.256 
L 209.188393 113.201419 
L 199.060929 85.695981 
L 185.76 59.092389 
L 185.76 59.092389 
" style="fill:none;stroke:#000000;stroke-linecap:square;stroke-width:0.5;"/>
   </g>
   <g id="line2d_198">
    <path clip-path="url(#p8c69bdacd8)" d="M 185.760451 221.418709 
" style="fill:none;stroke:#000000;stroke-linecap:square;stroke-width:0.5;"/>
   </g>
   <g id="line2d_199"/>
   <g id="line2d_200">
    <path clip-path="url(#p8c69bdacd8)" d="M 185.760376 221.418709 
L 197.031847 194.365114 
L 197.031849 189.856017 
L 205.343867 166.859605 
L 208.303741 144.314215 
L 208.243558 135.295975 
L 205.118398 112.750514 
L 197.031849 90.655982 
L 197.031846 86.146885 
L 185.76 59.092389 
L 185.76 59.092389 
" style="fill:none;stroke:#000000;stroke-linecap:square;stroke-width:0.5;"/>
   </g>
   <g id="line2d_201">
    <path clip-path="url(#p8c69bdacd8)" d="M 185.760376 221.418709 
" style="fill:none;stroke:#000000;stroke-linecap:square;stroke-width:0.5;"/>
   </g>
   <g id="line2d_202"/>
   <g id="line2d_203">
    <path clip-path="url(#p8c69bdacd8)" d="M 185.760301 221.418709 
L 194.777326 194.365114 
L 194.777328 185.346921 
L 201.438915 166.859605 
L 203.794691 148.823218 
L 203.734505 130.786901 
L 201.213446 112.750514 
L 194.777328 95.165079 
L 194.777326 86.146885 
L 185.76 59.092389 
L 185.76 59.092389 
" style="fill:none;stroke:#000000;stroke-linecap:square;stroke-width:0.5;"/>
   </g>
   <g id="line2d_204">
    <path clip-path="url(#p8c69bdacd8)" d="M 185.760301 221.418709 
" style="fill:none;stroke:#000000;stroke-linecap:square;stroke-width:0.5;"/>
   </g>
   <g id="line2d_205"/>
   <g id="line2d_206">
    <path clip-path="url(#p8c69bdacd8)" d="M 185.760225 221.418709 
L 192.522807 193.914186 
L 192.522807 180.837824 
L 197.533963 166.859605 
L 199.285641 153.332315 
L 199.225448 126.277804 
L 197.308495 112.750514 
L 192.522807 99.674152 
L 192.522806 86.146885 
L 185.76 59.092389 
L 185.76 59.092389 
" style="fill:none;stroke:#000000;stroke-linecap:square;stroke-width:0.5;"/>
   </g>
   <g id="line2d_207">
    <path clip-path="url(#p8c69bdacd8)" d="M 185.760225 221.418709 
" style="fill:none;stroke:#000000;stroke-linecap:square;stroke-width:0.5;"/>
   </g>
   <g id="line2d_208"/>
   <g id="line2d_209">
    <path clip-path="url(#p8c69bdacd8)" d="M 185.76015 221.418709 
L 190.268287 193.914186 
L 190.268287 176.328727 
L 193.629012 166.859605 
L 194.776591 157.841412 
L 194.716392 121.768708 
L 193.403543 112.750514 
L 190.268287 104.183249 
L 190.193148 85.695981 
L 185.76 59.092389 
L 185.76 59.092389 
" style="fill:none;stroke:#000000;stroke-linecap:square;stroke-width:0.5;"/>
   </g>
   <g id="line2d_210">
    <path clip-path="url(#p8c69bdacd8)" d="M 185.76015 221.418709 
" style="fill:none;stroke:#000000;stroke-linecap:square;stroke-width:0.5;"/>
   </g>
   <g id="line2d_211"/>
   <g id="line2d_212">
    <path clip-path="url(#p8c69bdacd8)" d="M 185.760075 221.418709 
L 188.013766 193.463257 
L 188.013766 171.81963 
L 189.72406 166.859605 
L 190.267541 162.350509 
L 190.207336 117.259611 
L 189.498591 112.750514 
L 188.013766 108.692346 
L 187.938641 85.245077 
L 185.76 59.092389 
L 185.76 59.092389 
" style="fill:none;stroke:#000000;stroke-linecap:square;stroke-width:0.5;"/>
   </g>
   <g id="line2d_213">
    <path clip-path="url(#p8c69bdacd8)" d="M 185.760075 221.418709 
" style="fill:none;stroke:#000000;stroke-linecap:square;stroke-width:0.5;"/>
   </g>
   <g id="line2d_214"/>
   <g id="line2d_215">
    <path clip-path="url(#p8c69bdacd8)" d="M 185.76 221.418709 
L 185.76 59.092389 
L 185.76 59.092389 
" style="fill:none;stroke:#000000;stroke-linecap:square;stroke-width:0.5;"/>
   </g>
   <g id="line2d_216">
    <path clip-path="url(#p8c69bdacd8)" d="M 185.76 221.418709 
" style="fill:none;stroke:#000000;stroke-linecap:square;stroke-width:0.5;"/>
   </g>
   <g id="line2d_217"/>
   <g id="line2d_218">
    <path clip-path="url(#p8c69bdacd8)" d="M 185.759925 221.418709 
L 183.504724 193.463257 
L 183.504181 171.81963 
L 181.793325 166.859605 
L 181.24944 162.350509 
L 181.31005 117.259611 
L 182.018794 112.750514 
L 183.50419 108.692346 
L 183.61749 84.79415 
L 185.76 59.092389 
L 185.76 59.092389 
" style="fill:none;stroke:#000000;stroke-linecap:square;stroke-width:0.5;"/>
   </g>
   <g id="line2d_219">
    <path clip-path="url(#p8c69bdacd8)" d="M 185.759925 221.418709 
" style="fill:none;stroke:#000000;stroke-linecap:square;stroke-width:0.5;"/>
   </g>
   <g id="line2d_220"/>
   <g id="line2d_221">
    <path clip-path="url(#p8c69bdacd8)" d="M 185.75985 221.418709 
L 181.250204 193.914186 
L 181.249678 176.328727 
L 177.888374 166.859605 
L 176.74039 157.841412 
L 176.800993 121.768708 
L 178.113842 112.750514 
L 181.249686 104.183249 
L 181.325367 85.695981 
L 185.76 59.092389 
L 185.76 59.092389 
" style="fill:none;stroke:#000000;stroke-linecap:square;stroke-width:0.5;"/>
   </g>
   <g id="line2d_222">
    <path clip-path="url(#p8c69bdacd8)" d="M 185.75985 221.418709 
" style="fill:none;stroke:#000000;stroke-linecap:square;stroke-width:0.5;"/>
   </g>
   <g id="line2d_223"/>
   <g id="line2d_224">
    <path clip-path="url(#p8c69bdacd8)" d="M 185.759775 221.418709 
L 178.995683 193.914186 
L 178.995174 180.837824 
L 173.983422 166.859605 
L 172.23134 153.332315 
L 172.291937 126.277804 
L 174.208891 112.750514 
L 178.995183 99.674152 
L 179.108422 85.695981 
L 185.76 59.092389 
L 185.76 59.092389 
" style="fill:none;stroke:#000000;stroke-linecap:square;stroke-width:0.5;"/>
   </g>
   <g id="line2d_225">
    <path clip-path="url(#p8c69bdacd8)" d="M 185.759775 221.418709 
" style="fill:none;stroke:#000000;stroke-linecap:square;stroke-width:0.5;"/>
   </g>
   <g id="line2d_226"/>
   <g id="line2d_227">
    <path clip-path="url(#p8c69bdacd8)" d="M 185.759699 221.418709 
L 176.741164 194.365114 
L 176.74067 185.346921 
L 170.07847 166.859605 
L 167.72229 148.823218 
L 167.782881 130.786901 
L 170.303939 112.750514 
L 176.740671 95.165079 
L 176.741164 86.146885 
L 185.76 59.092389 
L 185.76 59.092389 
" style="fill:none;stroke:#000000;stroke-linecap:square;stroke-width:0.5;"/>
   </g>
   <g id="line2d_228">
    <path clip-path="url(#p8c69bdacd8)" d="M 185.759699 221.418709 
" style="fill:none;stroke:#000000;stroke-linecap:square;stroke-width:0.5;"/>
   </g>
   <g id="line2d_229"/>
   <g id="line2d_230">
    <path clip-path="url(#p8c69bdacd8)" d="M 185.759624 221.418709 
L 174.486644 194.365114 
L 174.486167 189.856017 
L 166.173519 166.859605 
L 163.21324 144.314215 
L 163.273827 135.295975 
L 166.398987 112.750514 
L 174.486167 90.655982 
L 174.486644 86.146885 
L 185.76 59.092389 
L 185.76 59.092389 
" style="fill:none;stroke:#000000;stroke-linecap:square;stroke-width:0.5;"/>
   </g>
   <g id="line2d_231">
    <path clip-path="url(#p8c69bdacd8)" d="M 185.759624 221.418709 
" style="fill:none;stroke:#000000;stroke-linecap:square;stroke-width:0.5;"/>
   </g>
   <g id="line2d_232"/>
   <g id="line2d_233">
    <path clip-path="url(#p8c69bdacd8)" d="M 185.759549 221.418709 
L 171.90156 193.463257 
L 162.268567 166.859605 
L 158.70419 140.256 
L 162.494036 112.750514 
L 172.457586 85.695981 
L 185.76 59.092389 
L 185.76 59.092389 
" style="fill:none;stroke:#000000;stroke-linecap:square;stroke-width:0.5;"/>
   </g>
   <g id="line2d_234">
    <path clip-path="url(#p8c69bdacd8)" d="M 185.759549 221.418709 
" style="fill:none;stroke:#000000;stroke-linecap:square;stroke-width:0.5;"/>
   </g>
   <g id="line2d_235"/>
   <g id="line2d_236">
    <path clip-path="url(#p8c69bdacd8)" d="M 185.759474 221.418709 
L 169.647493 193.914186 
L 166.676708 189.856017 
L 158.424028 167.310534 
L 155.282535 144.314215 
L 154.195139 140.256 
L 155.463924 135.295975 
L 158.589084 112.750514 
L 166.676709 90.655982 
L 170.50367 85.245077 
L 185.76 59.092389 
L 185.76 59.092389 
" style="fill:none;stroke:#000000;stroke-linecap:square;stroke-width:0.5;"/>
   </g>
   <g id="line2d_237">
    <path clip-path="url(#p8c69bdacd8)" d="M 185.759474 221.418709 
" style="fill:none;stroke:#000000;stroke-linecap:square;stroke-width:0.5;"/>
   </g>
   <g id="line2d_238"/>
   <g id="line2d_239">
    <path clip-path="url(#p8c69bdacd8)" d="M 185.759399 221.418709 
L 166.402691 192.561447 
L 161.121292 185.346921 
L 154.519077 167.310534 
L 151.98167 148.823218 
L 149.686089 140.256 
L 152.163074 130.786901 
L 154.684132 112.750514 
L 161.121292 95.165079 
L 168.925533 84.343245 
L 185.76 59.092389 
L 185.76 59.092389 
" style="fill:none;stroke:#000000;stroke-linecap:square;stroke-width:0.5;"/>
   </g>
   <g id="line2d_240">
    <path clip-path="url(#p8c69bdacd8)" d="M 185.759399 221.418709 
" style="fill:none;stroke:#000000;stroke-linecap:square;stroke-width:0.5;"/>
   </g>
   <g id="line2d_241"/>
   <g id="line2d_242">
    <path clip-path="url(#p8c69bdacd8)" d="M 185.759324 221.418709 
L 159.857001 186.699612 
L 155.565875 180.837824 
L 150.553712 166.859605 
L 148.680829 153.332315 
L 145.177039 140.256 
L 148.862227 126.277804 
L 150.77918 112.750514 
L 155.565892 99.674152 
L 170.879597 78.932349 
L 185.76 59.092389 
L 185.76 59.092389 
" style="fill:none;stroke:#000000;stroke-linecap:square;stroke-width:0.5;"/>
   </g>
   <g id="line2d_243">
    <path clip-path="url(#p8c69bdacd8)" d="M 185.759324 221.418709 
" style="fill:none;stroke:#000000;stroke-linecap:square;stroke-width:0.5;"/>
   </g>
   <g id="line2d_244"/>
   <g id="line2d_245">
    <path clip-path="url(#p8c69bdacd8)" d="M 185.759248 221.418709 
L 162.2237 193.012329 
L 150.010458 176.328727 
L 146.64876 166.859605 
L 145.379988 157.841412 
L 140.667989 140.256 
L 145.56138 121.768708 
L 146.874229 112.750514 
L 150.010476 104.183249 
L 164.341317 84.79415 
L 185.76 59.092389 
L 185.76 59.092389 
" style="fill:none;stroke:#000000;stroke-linecap:square;stroke-width:0.5;"/>
   </g>
   <g id="line2d_246">
    <path clip-path="url(#p8c69bdacd8)" d="M 185.759248 221.418709 
" style="fill:none;stroke:#000000;stroke-linecap:square;stroke-width:0.5;"/>
   </g>
   <g id="line2d_247"/>
   <g id="line2d_248">
    <path clip-path="url(#p8c69bdacd8)" d="M 185.759173 221.418709 
L 160.629376 193.914186 
L 144.455042 171.81963 
L 142.743809 166.859605 
L 142.079148 162.350509 
L 136.158939 140.256 
L 142.260533 117.259611 
L 142.969277 112.750514 
L 144.455059 108.692346 
L 161.372818 85.695981 
L 185.76 59.092389 
L 185.76 59.092389 
" style="fill:none;stroke:#000000;stroke-linecap:square;stroke-width:0.5;"/>
   </g>
   <g id="line2d_249">
    <path clip-path="url(#p8c69bdacd8)" d="M 185.759173 221.418709 
" style="fill:none;stroke:#000000;stroke-linecap:square;stroke-width:0.5;"/>
   </g>
   <g id="line2d_250"/>
   <g id="line2d_251">
    <path clip-path="url(#p8c69bdacd8)" d="M 185.759098 221.418709 
L 158.374846 193.914186 
L 138.899264 167.310534 
L 131.649889 140.256 
L 138.899302 113.201419 
L 159.155864 85.695981 
L 185.76 59.092389 
L 185.76 59.092389 
" style="fill:none;stroke:#000000;stroke-linecap:square;stroke-width:0.5;"/>
   </g>
   <g id="line2d_252">
    <path clip-path="url(#p8c69bdacd8)" d="M 185.759098 221.418709 
" style="fill:none;stroke:#000000;stroke-linecap:square;stroke-width:0.5;"/>
   </g>
   <g id="line2d_253"/>
   <g id="line2d_254">
    <path clip-path="url(#p8c69bdacd8)" d="M 185.759023 221.418709 
L 156.120326 193.914186 
L 139.945634 171.81963 
L 134.994313 167.310534 
L 133.061056 162.350509 
L 127.140847 140.256 
L 133.363255 117.259611 
L 134.99435 113.201419 
L 140.276094 108.241441 
L 156.450431 86.146885 
L 185.76 59.092389 
L 185.76 59.092389 
" style="fill:none;stroke:#000000;stroke-linecap:square;stroke-width:0.5;"/>
   </g>
   <g id="line2d_255">
    <path clip-path="url(#p8c69bdacd8)" d="M 185.759023 221.418709 
" style="fill:none;stroke:#000000;stroke-linecap:square;stroke-width:0.5;"/>
   </g>
   <g id="line2d_256"/>
   <g id="line2d_257">
    <path clip-path="url(#p8c69bdacd8)" d="M 185.758948 221.418709 
L 154.19591 194.365114 
L 140.992017 176.328727 
L 131.089361 167.310534 
L 127.343805 157.841412 
L 122.631806 140.256 
L 127.645998 121.768708 
L 131.089399 113.201419 
L 141.322461 103.732344 
L 154.19591 86.146885 
L 185.76 59.092389 
L 185.76 59.092389 
" style="fill:none;stroke:#000000;stroke-linecap:square;stroke-width:0.5;"/>
   </g>
   <g id="line2d_258">
    <path clip-path="url(#p8c69bdacd8)" d="M 185.758948 221.418709 
" style="fill:none;stroke:#000000;stroke-linecap:square;stroke-width:0.5;"/>
   </g>
   <g id="line2d_259"/>
   <g id="line2d_260">
    <path clip-path="url(#p8c69bdacd8)" d="M 185.758873 221.418709 
L 151.941389 194.365114 
L 142.038401 180.837824 
L 127.184409 167.310534 
L 121.626554 153.332315 
L 118.122764 140.256 
L 121.92874 126.277804 
L 127.184447 113.201419 
L 142.368827 99.223247 
L 151.94139 86.146885 
L 185.76 59.092389 
L 185.76 59.092389 
" style="fill:none;stroke:#000000;stroke-linecap:square;stroke-width:0.5;"/>
   </g>
   <g id="line2d_261">
    <path clip-path="url(#p8c69bdacd8)" d="M 185.758873 221.418709 
" style="fill:none;stroke:#000000;stroke-linecap:square;stroke-width:0.5;"/>
   </g>
   <g id="line2d_262"/>
   <g id="line2d_263">
    <path clip-path="url(#p8c69bdacd8)" d="M 185.758798 221.418709 
L 149.686869 194.365114 
L 143.084785 185.346921 
L 123.279458 167.310534 
L 115.909303 148.823218 
L 113.613723 140.256 
L 116.211483 130.786901 
L 123.279495 113.201419 
L 143.415194 94.714151 
L 149.68687 86.146885 
L 185.76 59.092389 
L 185.76 59.092389 
" style="fill:none;stroke:#000000;stroke-linecap:square;stroke-width:0.5;"/>
   </g>
   <g id="line2d_264">
    <path clip-path="url(#p8c69bdacd8)" d="M 185.758798 221.418709 
" style="fill:none;stroke:#000000;stroke-linecap:square;stroke-width:0.5;"/>
   </g>
   <g id="line2d_265"/>
   <g id="line2d_266">
    <path clip-path="url(#p8c69bdacd8)" d="M 185.758722 221.418709 
L 147.432349 194.365114 
L 144.131168 189.856017 
L 119.374506 167.310534 
L 110.192077 144.314215 
L 109.104681 140.256 
L 110.494235 135.295975 
L 119.374544 113.201419 
L 144.46156 90.205054 
L 147.43235 86.146885 
L 185.76 59.092389 
L 185.76 59.092389 
" style="fill:none;stroke:#000000;stroke-linecap:square;stroke-width:0.5;"/>
   </g>
   <g id="line2d_267">
    <path clip-path="url(#p8c69bdacd8)" d="M 185.758722 221.418709 
" style="fill:none;stroke:#000000;stroke-linecap:square;stroke-width:0.5;"/>
   </g>
   <g id="line2d_268"/>
   <g id="line2d_269">
    <path clip-path="url(#p8c69bdacd8)" d="M 185.758647 221.418709 
L 144.682398 193.914186 
L 115.469554 167.310534 
L 104.59564 140.256 
L 115.469592 113.201419 
L 145.17783 86.146885 
L 185.76 59.092389 
L 185.76 59.092389 
" style="fill:none;stroke:#000000;stroke-linecap:square;stroke-width:0.5;"/>
   </g>
   <g id="line2d_270">
    <path clip-path="url(#p8c69bdacd8)" d="M 185.758647 221.418709 
" style="fill:none;stroke:#000000;stroke-linecap:square;stroke-width:0.5;"/>
   </g>
   <g id="line2d_271"/>
   <g id="line2d_272">
    <path clip-path="url(#p8c69bdacd8)" d="M 185.758572 221.418709 
L 140.942687 193.012329 
L 135.826119 189.405089 
L 111.564611 167.310534 
L 102.261381 144.314215 
L 100.086589 140.256 
L 102.865569 134.84507 
L 111.564649 113.201419 
L 136.321534 90.655982 
L 145.065153 84.79415 
L 185.76 59.092389 
L 185.76 59.092389 
" style="fill:none;stroke:#000000;stroke-linecap:square;stroke-width:0.5;"/>
   </g>
   <g id="line2d_273">
    <path clip-path="url(#p8c69bdacd8)" d="M 185.758572 221.418709 
" style="fill:none;stroke:#000000;stroke-linecap:square;stroke-width:0.5;"/>
   </g>
   <g id="line2d_274"/>
   <g id="line2d_275">
    <path clip-path="url(#p8c69bdacd8)" d="M 185.758497 221.418709 
L 139.348362 193.463257 
L 126.969841 184.895992 
L 107.659668 167.310534 
L 100.1687 148.823218 
L 95.577539 140.256 
L 100.772922 130.335996 
L 107.659706 113.201419 
L 127.465239 95.165079 
L 142.171799 85.245077 
L 185.76 59.092389 
L 185.76 59.092389 
" style="fill:none;stroke:#000000;stroke-linecap:square;stroke-width:0.5;"/>
   </g>
   <g id="line2d_276">
    <path clip-path="url(#p8c69bdacd8)" d="M 185.758497 221.418709 
" style="fill:none;stroke:#000000;stroke-linecap:square;stroke-width:0.5;"/>
   </g>
   <g id="line2d_277"/>
   <g id="line2d_278">
    <path clip-path="url(#p8c69bdacd8)" d="M 185.758422 221.418709 
L 137.754036 193.914186 
L 118.113563 180.386896 
L 103.754725 167.310534 
L 98.076069 153.332315 
L 91.068489 140.256 
L 98.680285 125.826899 
L 103.754763 113.201419 
L 118.608977 99.674152 
L 139.203332 85.695981 
L 185.76 59.092389 
L 185.76 59.092389 
" style="fill:none;stroke:#000000;stroke-linecap:square;stroke-width:0.5;"/>
   </g>
   <g id="line2d_279">
    <path clip-path="url(#p8c69bdacd8)" d="M 185.758422 221.418709 
" style="fill:none;stroke:#000000;stroke-linecap:square;stroke-width:0.5;"/>
   </g>
   <g id="line2d_280"/>
   <g id="line2d_281">
    <path clip-path="url(#p8c69bdacd8)" d="M 185.758347 221.418709 
L 135.499507 193.914186 
L 109.257284 175.877799 
L 99.849782 167.310534 
L 95.983437 157.841412 
L 86.559439 140.256 
L 96.587647 121.317803 
L 99.84982 113.201419 
L 109.752682 104.183249 
L 136.986378 85.695981 
L 185.76 59.092389 
L 185.76 59.092389 
" style="fill:none;stroke:#000000;stroke-linecap:square;stroke-width:0.5;"/>
   </g>
   <g id="line2d_282">
    <path clip-path="url(#p8c69bdacd8)" d="M 185.758347 221.418709 
" style="fill:none;stroke:#000000;stroke-linecap:square;stroke-width:0.5;"/>
   </g>
   <g id="line2d_283"/>
   <g id="line2d_284">
    <path clip-path="url(#p8c69bdacd8)" d="M 185.758272 221.418709 
L 133.244978 193.914186 
L 100.401006 171.368702 
L 95.944839 167.310534 
L 93.890806 162.350509 
L 82.050389 140.256 
L 94.49501 116.808706 
L 95.944877 113.201419 
L 100.896386 108.692346 
L 133.905185 86.146885 
L 185.76 59.092389 
L 185.76 59.092389 
" style="fill:none;stroke:#000000;stroke-linecap:square;stroke-width:0.5;"/>
   </g>
   <g id="line2d_285">
    <path clip-path="url(#p8c69bdacd8)" d="M 185.758272 221.418709 
" style="fill:none;stroke:#000000;stroke-linecap:square;stroke-width:0.5;"/>
   </g>
   <g id="line2d_286"/>
   <g id="line2d_287">
    <path clip-path="url(#p8c69bdacd8)" d="M 185.758196 221.418709 
L 130.990448 193.914186 
L 92.039891 167.310534 
L 77.541339 140.256 
L 92.039953 113.201419 
L 131.650656 86.146885 
L 185.76 59.092389 
L 185.76 59.092389 
" style="fill:none;stroke:#000000;stroke-linecap:square;stroke-width:0.5;"/>
   </g>
   <g id="line2d_288">
    <path clip-path="url(#p8c69bdacd8)" d="M 185.758196 221.418709 
" style="fill:none;stroke:#000000;stroke-linecap:square;stroke-width:0.5;"/>
   </g>
   <g id="line2d_289"/>
   <g id="line2d_290">
    <path clip-path="url(#p8c69bdacd8)" d="M 185.758121 221.418709 
L 129.396135 194.365114 
L 95.561874 171.368702 
L 88.134939 167.310534 
L 84.631079 161.899627 
L 73.032289 140.256 
L 85.718545 116.808706 
L 88.135001 113.201419 
L 97.047506 108.241441 
L 129.396136 86.146885 
L 185.76 59.092389 
L 185.76 59.092389 
" style="fill:none;stroke:#000000;stroke-linecap:square;stroke-width:0.5;"/>
   </g>
   <g id="line2d_291">
    <path clip-path="url(#p8c69bdacd8)" d="M 185.758121 221.418709 
" style="fill:none;stroke:#000000;stroke-linecap:square;stroke-width:0.5;"/>
   </g>
   <g id="line2d_292"/>
   <g id="line2d_293">
    <path clip-path="url(#p8c69bdacd8)" d="M 185.758046 221.418709 
L 127.141615 194.365114 
L 99.909136 175.877799 
L 84.229987 167.310534 
L 77.70561 157.39053 
L 68.523238 140.256 
L 78.79307 121.317803 
L 84.23005 113.201419 
L 101.394751 103.732344 
L 127.141616 86.146885 
L 185.76 59.092389 
L 185.76 59.092389 
" style="fill:none;stroke:#000000;stroke-linecap:square;stroke-width:0.5;"/>
   </g>
   <g id="line2d_294">
    <path clip-path="url(#p8c69bdacd8)" d="M 185.758046 221.418709 
" style="fill:none;stroke:#000000;stroke-linecap:square;stroke-width:0.5;"/>
   </g>
   <g id="line2d_295"/>
   <g id="line2d_296">
    <path clip-path="url(#p8c69bdacd8)" d="M 185.757971 221.418709 
L 124.887095 194.365114 
L 104.256398 180.386896 
L 80.325036 167.310534 
L 70.780141 152.881433 
L 64.014188 140.256 
L 71.867595 125.826899 
L 80.325098 113.201419 
L 105.741997 99.223247 
L 124.887096 86.146885 
L 185.76 59.092389 
L 185.76 59.092389 
" style="fill:none;stroke:#000000;stroke-linecap:square;stroke-width:0.5;"/>
   </g>
   <g id="line2d_297">
    <path clip-path="url(#p8c69bdacd8)" d="M 185.757971 221.418709 
" style="fill:none;stroke:#000000;stroke-linecap:square;stroke-width:0.5;"/>
   </g>
   <g id="line2d_298"/>
   <g id="line2d_299">
    <path clip-path="url(#p8c69bdacd8)" d="M 185.757896 221.418709 
L 122.632574 194.365114 
L 108.60366 184.895992 
L 76.420084 167.310534 
L 63.854672 148.372337 
L 59.505138 140.256 
L 64.94212 130.335996 
L 76.420146 113.201419 
L 110.089242 94.714151 
L 122.632576 86.146885 
L 185.76 59.092389 
L 185.76 59.092389 
" style="fill:none;stroke:#000000;stroke-linecap:square;stroke-width:0.5;"/>
   </g>
   <g id="line2d_300">
    <path clip-path="url(#p8c69bdacd8)" d="M 185.757896 221.418709 
" style="fill:none;stroke:#000000;stroke-linecap:square;stroke-width:0.5;"/>
   </g>
   <g id="line2d_301"/>
   <g id="line2d_302">
    <path clip-path="url(#p8c69bdacd8)" d="M 185.757821 221.418709 
L 120.378054 194.365114 
L 112.950923 189.405089 
L 72.515132 167.310534 
L 56.929228 143.863286 
L 54.996088 140.256 
L 58.01666 134.84507 
L 72.515195 113.201419 
L 114.436487 90.205054 
L 120.378055 86.146885 
L 185.76 59.092389 
L 185.76 59.092389 
" style="fill:none;stroke:#000000;stroke-linecap:square;stroke-width:0.5;"/>
   </g>
   <g id="line2d_303">
    <path clip-path="url(#p8c69bdacd8)" d="M 185.757821 221.418709 
" style="fill:none;stroke:#000000;stroke-linecap:square;stroke-width:0.5;"/>
   </g>
   <g id="line2d_304"/>
   <g id="line2d_305">
    <path clip-path="url(#p8c69bdacd8)" d="M 185.757745 221.418709 
L 118.123534 194.365114 
L 68.610181 167.310534 
L 50.487038 140.256 
L 68.610243 113.201419 
L 118.123535 86.146885 
L 185.76 59.092389 
L 185.76 59.092389 
" style="fill:none;stroke:#000000;stroke-linecap:square;stroke-width:0.5;"/>
   </g>
   <g id="line2d_306">
    <path clip-path="url(#p8c69bdacd8)" d="M 185.757745 221.418709 
" style="fill:none;stroke:#000000;stroke-linecap:square;stroke-width:0.5;"/>
   </g>
   <g id="line2d_307"/>
   <g id="line2d_308">
    <path clip-path="url(#p8c69bdacd8)" d="M 185.75767 221.418709 
L 114.878704 193.914186 
L 105.141019 189.405089 
L 64.705229 167.310534 
L 48.877697 143.863286 
L 45.977988 140.256 
L 50.206757 134.84507 
L 64.705291 113.201419 
L 106.956658 90.205054 
L 117.033854 85.695981 
L 185.76 59.092389 
L 185.76 59.092389 
" style="fill:none;stroke:#000000;stroke-linecap:square;stroke-width:0.5;"/>
   </g>
   <g id="line2d_309">
    <path clip-path="url(#p8c69bdacd8)" d="M 185.75767 221.418709 
" style="fill:none;stroke:#000000;stroke-linecap:square;stroke-width:0.5;"/>
   </g>
   <g id="line2d_310"/>
   <g id="line2d_311">
    <path clip-path="url(#p8c69bdacd8)" d="M 185.757595 221.418709 
L 112.624183 193.914186 
L 92.983854 184.895992 
L 60.800277 167.310534 
L 47.993238 148.372337 
L 41.468938 140.256 
L 49.322313 130.335996 
L 60.80034 113.201419 
L 94.799475 94.714151 
L 114.816909 85.695981 
L 185.76 59.092389 
L 185.76 59.092389 
" style="fill:none;stroke:#000000;stroke-linecap:square;stroke-width:0.5;"/>
   </g>
   <g id="line2d_312">
    <path clip-path="url(#p8c69bdacd8)" d="M 185.757595 221.418709 
" style="fill:none;stroke:#000000;stroke-linecap:square;stroke-width:0.5;"/>
   </g>
   <g id="line2d_313"/>
   <g id="line2d_314">
    <path clip-path="url(#p8c69bdacd8)" d="M 185.75752 221.418709 
L 110.369663 193.914186 
L 80.826688 180.386896 
L 56.895326 167.310534 
L 47.108816 152.881433 
L 36.959888 140.256 
L 48.437885 125.826899 
L 56.895388 113.201419 
L 82.642292 99.223247 
L 112.599964 85.695981 
L 185.76 59.092389 
L 185.76 59.092389 
" style="fill:none;stroke:#000000;stroke-linecap:square;stroke-width:0.5;"/>
   </g>
   <g id="line2d_315">
    <path clip-path="url(#p8c69bdacd8)" d="M 185.75752 221.418709 
" style="fill:none;stroke:#000000;stroke-linecap:square;stroke-width:0.5;"/>
   </g>
   <g id="line2d_316"/>
   <g id="line2d_317">
    <path clip-path="url(#p8c69bdacd8)" d="M 185.757445 221.418709 
L 108.115142 193.914186 
L 68.669523 175.877799 
L 52.990374 167.310534 
L 46.224395 157.39053 
L 32.450837 140.256 
L 47.553457 121.317803 
L 52.990436 113.201419 
L 70.48511 103.732344 
L 109.105454 86.146885 
L 185.76 59.092389 
L 185.76 59.092389 
" style="fill:none;stroke:#000000;stroke-linecap:square;stroke-width:0.5;"/>
   </g>
   <g id="line2d_318">
    <path clip-path="url(#p8c69bdacd8)" d="M 185.757445 221.418709 
" style="fill:none;stroke:#000000;stroke-linecap:square;stroke-width:0.5;"/>
   </g>
   <g id="line2d_319"/>
   <g id="line2d_320">
    <path clip-path="url(#p8c69bdacd8)" d="M 185.75737 221.418709 
L 105.860621 193.914186 
L 56.512357 171.368702 
L 49.085422 167.310534 
L 45.339973 161.899627 
L 27.941787 140.256 
L 46.669029 116.808706 
L 49.085485 113.201419 
L 58.327927 108.241441 
L 106.850934 86.146885 
L 185.76 59.092389 
L 185.76 59.092389 
" style="fill:none;stroke:#000000;stroke-linecap:square;stroke-width:0.5;"/>
   </g>
   <g id="line2d_321">
    <path clip-path="url(#p8c69bdacd8)" d="M 185.75737 221.418709 
" style="fill:none;stroke:#000000;stroke-linecap:square;stroke-width:0.5;"/>
   </g>
  </g>
 </g>
 <defs>
  <clipPath id="p8c69bdacd8">
   <rect height="266.112" width="357.12" x="7.2" y="7.2"/>
  </clipPath>
 </defs>
</svg>
